<?xml version="1.0" encoding="UTF-8"?>
<svg version="1.1" xmlns="http://www.w3.org/2000/svg" width="512" height="512">
<path d="M0 0 C0.96310154 -0.00307895 0.96310154 -0.00307895 1.94565967 -0.0062201 C4.09983441 -0.01188016 6.25394502 -0.01043408 8.40812588 -0.00901413 C9.96718893 -0.01159835 11.52625131 -0.01461166 13.08531278 -0.01801753 C17.37204847 -0.02608433 21.65876741 -0.02787693 25.94550979 -0.028615 C30.56805773 -0.03046614 35.19059699 -0.03801385 39.81313992 -0.04475021 C49.92283008 -0.05833238 60.03251629 -0.06435824 70.14221406 -0.06876087 C76.45594412 -0.07152382 82.76967265 -0.0757613 89.08340168 -0.08026505 C106.56713324 -0.09245818 124.05086358 -0.102757 141.5345993 -0.10614014 C143.21314478 -0.10646949 143.21314478 -0.10646949 144.92560026 -0.10680549 C146.04729953 -0.10702377 147.16899881 -0.10724204 148.32468897 -0.10746694 C150.59765407 -0.1079104 152.87061916 -0.10835696 155.14358425 -0.10880661 C156.8347859 -0.10913875 156.8347859 -0.10913875 158.56015324 -0.10947761 C176.82291753 -0.11342432 195.08564189 -0.13087429 213.34839077 -0.15416613 C232.10229439 -0.1778911 250.856178 -0.19034253 269.61009687 -0.19150805 C280.1381227 -0.19242424 290.66609652 -0.19816216 301.19410801 -0.21632767 C310.16049028 -0.23174418 319.12680447 -0.23684 328.09319747 -0.22858956 C332.66579683 -0.2246884 337.23825915 -0.22558654 341.81084156 -0.23964691 C346.00255782 -0.25241792 350.19403451 -0.25116035 354.38575058 -0.2390562 C355.8965741 -0.23710472 357.40741477 -0.24015211 358.91821421 -0.24890056 C374.77417357 -0.33485189 387.34572155 2.2868556 399.24929714 13.25642776 C409.69520774 24.23850015 411.80652382 36.96585458 411.76672268 51.51539993 C411.77125379 52.73898311 411.7757849 53.96256629 411.78045332 55.22322774 C411.79088145 58.59833882 411.79243043 61.97323584 411.79006457 65.34834766 C411.78965479 68.99674931 411.80071086 72.64511971 411.81017971 76.29350662 C411.82675572 83.43346409 411.83228771 90.57338852 411.83340447 97.71336362 C411.83435654 103.52015524 411.83847475 109.32693602 411.84480572 115.13372421 C411.86240869 131.61596129 411.87164604 148.09817237 411.87014477 164.58041891 C411.87006486 165.46801355 411.86998494 166.35560819 411.86990261 167.27009964 C411.86982085 168.15878452 411.86973909 169.0474694 411.86965485 169.96308413 C411.86884217 184.36119553 411.88797773 198.75920226 411.91617934 213.1572834 C411.9449429 227.95967098 411.95871774 242.76200757 411.95699179 257.5644238 C411.9563291 265.86741004 411.96176834 274.17028654 411.98334789 282.47324753 C412.00160543 289.54303571 412.00586963 296.61266439 411.99232905 303.682466 C411.9858224 307.28517479 411.98559795 310.887578 412.00303555 314.49025726 C412.02179638 318.40681798 412.0091517 322.32293826 411.99377346 326.23952103 C412.00406059 327.3627995 412.01434771 328.48607797 412.02494657 329.64339519 C411.91494506 342.38481067 408.19587586 354.83074309 399.46414089 364.35017776 C390.88994579 372.45558971 380.58168357 377.37698969 368.66882515 377.38590336 C367.68870049 377.39071308 367.68870049 377.39071308 366.68877533 377.39561996 C364.50798677 377.40389498 362.32747464 377.39800457 360.14668179 377.39212418 C358.56384215 377.39514601 356.98100398 377.39903565 355.39816839 377.40371674 C351.05506042 377.4140015 346.71203496 377.41181369 342.36892021 377.40753615 C337.68236422 377.40506978 332.99582814 377.41408202 328.30927944 377.42157364 C319.13000505 377.43432543 309.9507599 377.4361137 300.77147814 377.43377338 C293.30986579 377.43199048 285.84826232 377.43373924 278.38665104 377.43799782 C277.32474798 377.43859301 276.26284492 377.4391882 275.16876299 377.43980142 C273.01150303 377.44101317 270.85424308 377.44222731 268.69698314 377.4434438 C248.46398137 377.45432133 228.23099627 377.45215592 207.99799357 377.44605895 C189.49150798 377.44089042 170.98507504 377.45214318 152.47859987 377.47115717 C133.47377643 377.49053339 114.46897791 377.4987919 95.46414453 377.49503392 C84.79537048 377.49312144 74.12664124 377.49561392 63.45787525 377.50974846 C54.37473261 377.5216605 45.29166234 377.52306916 36.20851871 377.51095829 C31.57539951 377.5050682 26.94241272 377.50397379 22.30930233 377.51596069 C18.0647202 377.52681462 13.82038109 377.52372196 9.57581035 377.50969901 C8.04355044 377.50705072 6.51127152 377.50942277 4.97903027 377.51743487 C-10.33533135 377.59193017 -21.92503467 374.55312179 -33.31320286 363.88142776 C-37.55506597 359.43721429 -40.19478105 354.7940712 -42.50070286 349.13142776 C-43.11945286 347.61549026 -43.11945286 347.61549026 -43.75070286 346.06892776 C-45.75557643 338.21650627 -45.64581623 330.17576699 -45.63441563 322.12709427 C-45.63668118 320.94434662 -45.63894674 319.76159896 -45.64128095 318.54301047 C-45.64649318 315.28197553 -45.64726978 312.02097552 -45.64608657 308.75993776 C-45.64588162 305.23424801 -45.65141032 301.70856634 -45.65614414 298.1828804 C-45.66443077 291.28356142 -45.66719808 284.38425099 -45.66775652 277.48492745 C-45.66823262 271.87360086 -45.67029206 266.26227708 -45.67345715 260.65095139 C-45.68225826 244.72209368 -45.68687737 228.79324269 -45.68612667 212.86438254 C-45.68608672 212.00665785 -45.68604676 211.14893317 -45.68600559 210.26521683 C-45.68596471 209.40643809 -45.68592383 208.54765936 -45.68588171 207.66285703 C-45.68547539 193.74976845 -45.69504295 179.83670696 -45.70914396 165.92362621 C-45.72352731 151.61844961 -45.73041307 137.31328619 -45.72955018 123.00810218 C-45.72921889 114.98460607 -45.73193615 106.96113835 -45.74272823 98.93764877 C-45.75185904 92.1057824 -45.75398737 85.27395729 -45.74721881 78.44208744 C-45.7439666 74.96097744 -45.74384959 71.4799465 -45.75257206 67.99884415 C-45.76032188 64.21372488 -45.75562725 60.42881087 -45.74794102 56.64369583 C-45.75308458 55.55932684 -45.75822814 54.47495785 -45.76352757 53.3577292 C-45.69570534 38.15982912 -43.44473412 23.98702368 -32.56320286 12.56892776 C-23.21780843 4.15807278 -12.58458683 0.01372521 0 0 Z " fill="#E6F1FE" transform="translate(72.50070285797119,66.86857223510742)"/>
<path d="M0 0 C0.96310154 -0.00307895 0.96310154 -0.00307895 1.94565967 -0.0062201 C4.09983441 -0.01188016 6.25394502 -0.01043408 8.40812588 -0.00901413 C9.96718893 -0.01159835 11.52625131 -0.01461166 13.08531278 -0.01801753 C17.37204847 -0.02608433 21.65876741 -0.02787693 25.94550979 -0.028615 C30.56805773 -0.03046614 35.19059699 -0.03801385 39.81313992 -0.04475021 C49.92283008 -0.05833238 60.03251629 -0.06435824 70.14221406 -0.06876087 C76.45594412 -0.07152382 82.76967265 -0.0757613 89.08340168 -0.08026505 C106.56713324 -0.09245818 124.05086358 -0.102757 141.5345993 -0.10614014 C143.21314478 -0.10646949 143.21314478 -0.10646949 144.92560026 -0.10680549 C146.04729953 -0.10702377 147.16899881 -0.10724204 148.32468897 -0.10746694 C150.59765407 -0.1079104 152.87061916 -0.10835696 155.14358425 -0.10880661 C156.8347859 -0.10913875 156.8347859 -0.10913875 158.56015324 -0.10947761 C176.82291753 -0.11342432 195.08564189 -0.13087429 213.34839077 -0.15416613 C232.10229439 -0.1778911 250.856178 -0.19034253 269.61009687 -0.19150805 C280.1381227 -0.19242424 290.66609652 -0.19816216 301.19410801 -0.21632767 C310.16049028 -0.23174418 319.12680447 -0.23684 328.09319747 -0.22858956 C332.66579683 -0.2246884 337.23825915 -0.22558654 341.81084156 -0.23964691 C346.00255782 -0.25241792 350.19403451 -0.25116035 354.38575058 -0.2390562 C355.8965741 -0.23710472 357.40741477 -0.24015211 358.91821421 -0.24890056 C374.77417357 -0.33485189 387.34572155 2.2868556 399.24929714 13.25642776 C409.69520774 24.23850015 411.80652382 36.96585458 411.76672268 51.51539993 C411.77125379 52.73898311 411.7757849 53.96256629 411.78045332 55.22322774 C411.79088145 58.59833882 411.79243043 61.97323584 411.79006457 65.34834766 C411.78965479 68.99674931 411.80071086 72.64511971 411.81017971 76.29350662 C411.82675572 83.43346409 411.83228771 90.57338852 411.83340447 97.71336362 C411.83435654 103.52015524 411.83847475 109.32693602 411.84480572 115.13372421 C411.86240869 131.61596129 411.87164604 148.09817237 411.87014477 164.58041891 C411.87006486 165.46801355 411.86998494 166.35560819 411.86990261 167.27009964 C411.86982085 168.15878452 411.86973909 169.0474694 411.86965485 169.96308413 C411.86884217 184.36119553 411.88797773 198.75920226 411.91617934 213.1572834 C411.9449429 227.95967098 411.95871774 242.76200757 411.95699179 257.5644238 C411.9563291 265.86741004 411.96176834 274.17028654 411.98334789 282.47324753 C412.00160543 289.54303571 412.00586963 296.61266439 411.99232905 303.682466 C411.9858224 307.28517479 411.98559795 310.887578 412.00303555 314.49025726 C412.02179638 318.40681798 412.0091517 322.32293826 411.99377346 326.23952103 C412.00406059 327.3627995 412.01434771 328.48607797 412.02494657 329.64339519 C411.91494506 342.38481067 408.19587586 354.83074309 399.46414089 364.35017776 C390.88994579 372.45558971 380.58168357 377.37698969 368.66882515 377.38590336 C367.68870049 377.39071308 367.68870049 377.39071308 366.68877533 377.39561996 C364.50798677 377.40389498 362.32747464 377.39800457 360.14668179 377.39212418 C358.56384215 377.39514601 356.98100398 377.39903565 355.39816839 377.40371674 C351.05506042 377.4140015 346.71203496 377.41181369 342.36892021 377.40753615 C337.68236422 377.40506978 332.99582814 377.41408202 328.30927944 377.42157364 C319.13000505 377.43432543 309.9507599 377.4361137 300.77147814 377.43377338 C293.30986579 377.43199048 285.84826232 377.43373924 278.38665104 377.43799782 C277.32474798 377.43859301 276.26284492 377.4391882 275.16876299 377.43980142 C273.01150303 377.44101317 270.85424308 377.44222731 268.69698314 377.4434438 C248.46398137 377.45432133 228.23099627 377.45215592 207.99799357 377.44605895 C189.49150798 377.44089042 170.98507504 377.45214318 152.47859987 377.47115717 C133.47377643 377.49053339 114.46897791 377.4987919 95.46414453 377.49503392 C84.79537048 377.49312144 74.12664124 377.49561392 63.45787525 377.50974846 C54.37473261 377.5216605 45.29166234 377.52306916 36.20851871 377.51095829 C31.57539951 377.5050682 26.94241272 377.50397379 22.30930233 377.51596069 C18.0647202 377.52681462 13.82038109 377.52372196 9.57581035 377.50969901 C8.04355044 377.50705072 6.51127152 377.50942277 4.97903027 377.51743487 C-10.33533135 377.59193017 -21.92503467 374.55312179 -33.31320286 363.88142776 C-37.55506597 359.43721429 -40.19478105 354.7940712 -42.50070286 349.13142776 C-43.11945286 347.61549026 -43.11945286 347.61549026 -43.75070286 346.06892776 C-45.75557643 338.21650627 -45.64581623 330.17576699 -45.63441563 322.12709427 C-45.63668118 320.94434662 -45.63894674 319.76159896 -45.64128095 318.54301047 C-45.64649318 315.28197553 -45.64726978 312.02097552 -45.64608657 308.75993776 C-45.64588162 305.23424801 -45.65141032 301.70856634 -45.65614414 298.1828804 C-45.66443077 291.28356142 -45.66719808 284.38425099 -45.66775652 277.48492745 C-45.66823262 271.87360086 -45.67029206 266.26227708 -45.67345715 260.65095139 C-45.68225826 244.72209368 -45.68687737 228.79324269 -45.68612667 212.86438254 C-45.68608672 212.00665785 -45.68604676 211.14893317 -45.68600559 210.26521683 C-45.68596471 209.40643809 -45.68592383 208.54765936 -45.68588171 207.66285703 C-45.68547539 193.74976845 -45.69504295 179.83670696 -45.70914396 165.92362621 C-45.72352731 151.61844961 -45.73041307 137.31328619 -45.72955018 123.00810218 C-45.72921889 114.98460607 -45.73193615 106.96113835 -45.74272823 98.93764877 C-45.75185904 92.1057824 -45.75398737 85.27395729 -45.74721881 78.44208744 C-45.7439666 74.96097744 -45.74384959 71.4799465 -45.75257206 67.99884415 C-45.76032188 64.21372488 -45.75562725 60.42881087 -45.74794102 56.64369583 C-45.75308458 55.55932684 -45.75822814 54.47495785 -45.76352757 53.3577292 C-45.69570534 38.15982912 -43.44473412 23.98702368 -32.56320286 12.56892776 C-23.21780843 4.15807278 -12.58458683 0.01372521 0 0 Z M-36.50070286 94.13142776 C-36.54195286 134.04080276 -36.58320286 173.95017776 -36.62570286 215.06892776 C-36.64391087 227.67330032 -36.66211887 240.27767288 -36.68087864 253.26399612 C-36.68756725 264.55636161 -36.68756725 264.55636161 -36.69159031 275.84872818 C-36.69345459 280.88085059 -36.70095361 285.91293086 -36.71185398 290.94504166 C-36.72557623 297.36494172 -36.72968436 303.78478054 -36.72684741 310.20469391 C-36.7274406 312.56008819 -36.73140402 314.91548461 -36.73913312 317.27086627 C-36.74909679 320.45529386 -36.74667688 323.63948423 -36.74121189 326.82391739 C-36.74703722 327.74293618 -36.75286255 328.66195498 -36.7588644 329.60882282 C-36.7069737 340.87708745 -34.17085436 349.93902546 -26.42257786 358.40095901 C-18.34576773 366.01179933 -10.07329563 369.25075371 0.97435188 369.26285553 C2.29138027 369.26669667 3.60840865 369.27053782 4.96534699 369.27449536 C6.42545018 369.27371516 7.88555332 369.27283638 9.34565639 369.27186966 C10.89789523 369.27445388 12.4501334 369.2774672 14.00237066 369.28087306 C18.27016444 369.28893959 22.5379414 369.29073244 26.80574191 369.29147053 C31.40780153 369.29332168 36.00985243 369.30086934 40.61190701 369.30760574 C50.67600979 369.32118711 60.74010859 369.32721347 70.80421901 369.3316164 C77.08845177 369.33437914 83.37268299 369.33861656 89.65691471 369.34312057 C107.05658242 369.35531296 124.4562489 369.36561235 141.85592079 369.36899567 C143.52631812 369.36932502 143.52631812 369.36932502 145.23046084 369.36966102 C146.34672114 369.3698793 147.46298144 369.37009757 148.61306781 369.37032247 C150.87503032 369.37076593 153.13699283 369.3712125 155.39895535 369.37166214 C156.5209665 369.37188357 157.64297766 369.372105 158.79898915 369.37233314 C176.97903981 369.37628104 195.15905037 369.39373497 213.33908554 369.41702166 C232.00483855 369.4407375 250.67057145 369.45319762 269.33633977 369.45436358 C279.81623538 369.45528021 290.29607875 369.46102945 300.77595997 369.4791832 C309.69994606 369.49458729 318.62386378 369.49970281 327.54786064 369.49144509 C332.09995975 369.48753971 336.65192119 369.48846279 341.20400333 369.50250244 C345.374644 369.51524786 349.54504361 369.51403823 353.71568397 369.50191173 C355.22108836 369.49995585 356.72650987 369.50302815 358.23189022 369.51175609 C370.74971591 369.57971298 381.34714695 367.94602405 391.49929714 360.13142776 C398.86899606 352.77582005 402.92140737 343.79282524 403.01562023 333.37503624 C403.00396957 332.44337072 402.99231892 331.51170521 402.98031521 330.5518074 C402.98373928 329.53705841 402.98716335 328.52230942 402.99069118 327.47681046 C402.99727205 324.09169611 402.9752848 320.70738681 402.9533987 317.32234573 C402.9521725 314.8480882 402.95270881 312.37382927 402.95485973 309.89957237 C402.95566952 303.95815463 402.93858667 298.01704459 402.91285442 292.07570381 C402.88396004 285.19720401 402.88087029 278.31882468 402.87771511 271.44026566 C402.85674683 253.29561465 402.80090201 235.1510175 402.74929714 217.00642776 C402.62554714 156.18330276 402.62554714 156.18330276 402.49929714 94.13142776 C257.62929714 94.13142776 112.75929714 94.13142776 -36.50070286 94.13142776 Z " fill="#83C8F1" transform="translate(72.50070285797119,66.86857223510742)"/>
<path d="M0 0 C0.85335937 0.68707031 1.70671875 1.37414062 2.5859375 2.08203125 C21.93364035 18.53063036 35.63838748 43.49773313 38.29711914 68.83105469 C40.61834911 99.5803448 34.46655273 128.0786232 14 152 C13.33484375 152.79792969 12.6696875 153.59585938 11.984375 154.41796875 C-3.38445075 172.24691229 -23.93545845 184.24414102 -47 189 C-48.20112427 189.25487183 -48.20112427 189.25487183 -49.42651367 189.51489258 C-56.0627761 190.83860415 -62.42660946 191.35238555 -69.1875 191.3125 C-70.1878125 191.30758545 -71.188125 191.3026709 -72.21875 191.29760742 C-97.37543899 190.90402957 -119.63727025 181.67180094 -139 166 C-139.67675781 165.46503906 -140.35351562 164.93007813 -141.05078125 164.37890625 C-161.17473124 147.91385625 -173.30956802 122.38450657 -177 97 C-178.80026282 65.73998812 -172.91951627 37.2983197 -152 13 C-144.76595164 5.01035168 -137.24736313 -2.37603634 -128 -8 C-127.01386719 -8.64195312 -126.02773437 -9.28390625 -125.01171875 -9.9453125 C-85.60350161 -34.30338796 -35.38872951 -28.71069102 0 0 Z " fill="#2C3454" transform="translate(325,215)"/>
<path d="M0 0 C0.96310154 -0.00307895 0.96310154 -0.00307895 1.94565967 -0.0062201 C4.09983441 -0.01188016 6.25394502 -0.01043408 8.40812588 -0.00901413 C9.96718893 -0.01159835 11.52625131 -0.01461166 13.08531278 -0.01801753 C17.37204847 -0.02608433 21.65876741 -0.02787693 25.94550979 -0.028615 C30.56805773 -0.03046614 35.19059699 -0.03801385 39.81313992 -0.04475021 C49.92283008 -0.05833238 60.03251629 -0.06435824 70.14221406 -0.06876087 C76.45594412 -0.07152382 82.76967265 -0.0757613 89.08340168 -0.08026505 C106.56713324 -0.09245818 124.05086358 -0.102757 141.5345993 -0.10614014 C143.21314478 -0.10646949 143.21314478 -0.10646949 144.92560026 -0.10680549 C146.04729953 -0.10702377 147.16899881 -0.10724204 148.32468897 -0.10746694 C150.59765407 -0.1079104 152.87061916 -0.10835696 155.14358425 -0.10880661 C156.8347859 -0.10913875 156.8347859 -0.10913875 158.56015324 -0.10947761 C176.82291753 -0.11342432 195.08564189 -0.13087429 213.34839077 -0.15416613 C232.10229439 -0.1778911 250.856178 -0.19034253 269.61009687 -0.19150805 C280.1381227 -0.19242424 290.66609652 -0.19816216 301.19410801 -0.21632767 C310.16049028 -0.23174418 319.12680447 -0.23684 328.09319747 -0.22858956 C332.66579683 -0.2246884 337.23825915 -0.22558654 341.81084156 -0.23964691 C346.00255782 -0.25241792 350.19403451 -0.25116035 354.38575058 -0.2390562 C355.8965741 -0.23710472 357.40741477 -0.24015211 358.91821421 -0.24890056 C374.77417357 -0.33485189 387.34572155 2.2868556 399.24929714 13.25642776 C409.69520774 24.23850015 411.80652382 36.96585458 411.76672268 51.51539993 C411.77125379 52.73898311 411.7757849 53.96256629 411.78045332 55.22322774 C411.79088145 58.59833882 411.79243043 61.97323584 411.79006457 65.34834766 C411.78965479 68.99674931 411.80071086 72.64511971 411.81017971 76.29350662 C411.82675572 83.43346409 411.83228771 90.57338852 411.83340447 97.71336362 C411.83435654 103.52015524 411.83847475 109.32693602 411.84480572 115.13372421 C411.86240869 131.61596129 411.87164604 148.09817237 411.87014477 164.58041891 C411.87006486 165.46801355 411.86998494 166.35560819 411.86990261 167.27009964 C411.86982085 168.15878452 411.86973909 169.0474694 411.86965485 169.96308413 C411.86884217 184.36119553 411.88797773 198.75920226 411.91617934 213.1572834 C411.9449429 227.95967098 411.95871774 242.76200757 411.95699179 257.5644238 C411.9563291 265.86741004 411.96176834 274.17028654 411.98334789 282.47324753 C412.00160543 289.54303571 412.00586963 296.61266439 411.99232905 303.682466 C411.9858224 307.28517479 411.98559795 310.887578 412.00303555 314.49025726 C412.02179638 318.40681798 412.0091517 322.32293826 411.99377346 326.23952103 C412.00406059 327.3627995 412.01434771 328.48607797 412.02494657 329.64339519 C411.91494506 342.38481067 408.19587586 354.83074309 399.46414089 364.35017776 C390.88994579 372.45558971 380.58168357 377.37698969 368.66882515 377.38590336 C367.68870049 377.39071308 367.68870049 377.39071308 366.68877533 377.39561996 C364.50798677 377.40389498 362.32747464 377.39800457 360.14668179 377.39212418 C358.56384215 377.39514601 356.98100398 377.39903565 355.39816839 377.40371674 C351.05506042 377.4140015 346.71203496 377.41181369 342.36892021 377.40753615 C337.68236422 377.40506978 332.99582814 377.41408202 328.30927944 377.42157364 C319.13000505 377.43432543 309.9507599 377.4361137 300.77147814 377.43377338 C293.30986579 377.43199048 285.84826232 377.43373924 278.38665104 377.43799782 C277.32474798 377.43859301 276.26284492 377.4391882 275.16876299 377.43980142 C273.01150303 377.44101317 270.85424308 377.44222731 268.69698314 377.4434438 C248.46398137 377.45432133 228.23099627 377.45215592 207.99799357 377.44605895 C189.49150798 377.44089042 170.98507504 377.45214318 152.47859987 377.47115717 C133.47377643 377.49053339 114.46897791 377.4987919 95.46414453 377.49503392 C84.79537048 377.49312144 74.12664124 377.49561392 63.45787525 377.50974846 C54.37473261 377.5216605 45.29166234 377.52306916 36.20851871 377.51095829 C31.57539951 377.5050682 26.94241272 377.50397379 22.30930233 377.51596069 C18.0647202 377.52681462 13.82038109 377.52372196 9.57581035 377.50969901 C8.04355044 377.50705072 6.51127152 377.50942277 4.97903027 377.51743487 C-10.33533135 377.59193017 -21.92503467 374.55312179 -33.31320286 363.88142776 C-37.55506597 359.43721429 -40.19478105 354.7940712 -42.50070286 349.13142776 C-43.11945286 347.61549026 -43.11945286 347.61549026 -43.75070286 346.06892776 C-45.75557643 338.21650627 -45.64581623 330.17576699 -45.63441563 322.12709427 C-45.63668118 320.94434662 -45.63894674 319.76159896 -45.64128095 318.54301047 C-45.64649318 315.28197553 -45.64726978 312.02097552 -45.64608657 308.75993776 C-45.64588162 305.23424801 -45.65141032 301.70856634 -45.65614414 298.1828804 C-45.66443077 291.28356142 -45.66719808 284.38425099 -45.66775652 277.48492745 C-45.66823262 271.87360086 -45.67029206 266.26227708 -45.67345715 260.65095139 C-45.68225826 244.72209368 -45.68687737 228.79324269 -45.68612667 212.86438254 C-45.68608672 212.00665785 -45.68604676 211.14893317 -45.68600559 210.26521683 C-45.68596471 209.40643809 -45.68592383 208.54765936 -45.68588171 207.66285703 C-45.68547539 193.74976845 -45.69504295 179.83670696 -45.70914396 165.92362621 C-45.72352731 151.61844961 -45.73041307 137.31328619 -45.72955018 123.00810218 C-45.72921889 114.98460607 -45.73193615 106.96113835 -45.74272823 98.93764877 C-45.75185904 92.1057824 -45.75398737 85.27395729 -45.74721881 78.44208744 C-45.7439666 74.96097744 -45.74384959 71.4799465 -45.75257206 67.99884415 C-45.76032188 64.21372488 -45.75562725 60.42881087 -45.74794102 56.64369583 C-45.75308458 55.55932684 -45.75822814 54.47495785 -45.76352757 53.3577292 C-45.69570534 38.15982912 -43.44473412 23.98702368 -32.56320286 12.56892776 C-23.21780843 4.15807278 -12.58458683 0.01372521 0 0 Z M-29.99289036 22.97127151 C-41.96432786 40.29089559 -36.50070286 67.41133762 -36.50070286 85.13142776 C108.36929714 85.13142776 253.23929714 85.13142776 402.49929714 85.13142776 C406.02987698 48.6278432 406.02987698 48.6278432 391.88601589 18.10799026 C384.56098857 12.04176469 376.46584984 9.01340607 367.07479 8.99441338 C366.10582155 8.99043564 366.10582155 8.99043564 365.11727798 8.98637754 C362.94378113 8.978693 360.77034085 8.97812569 358.59683132 8.97752762 C357.02625657 8.97351243 355.45568285 8.96907411 353.88511038 8.96424806 C349.56191468 8.95228285 345.23873015 8.94663422 340.91552114 8.94206691 C336.25546092 8.93611057 331.59541404 8.92450075 326.93536282 8.9137764 C315.67696024 8.88925235 304.41855324 8.87462483 293.16013217 8.86171633 C289.98004582 8.85800427 286.79995991 8.85403105 283.619874 8.84996367 C263.87081112 8.82472601 244.12174753 8.80267347 224.37267208 8.79023552 C219.79801843 8.78730583 215.2233648 8.78434417 210.6487112 8.78133011 C209.51170609 8.78058406 208.37470098 8.77983801 207.20324117 8.77906935 C188.78842113 8.76641835 170.37369769 8.73319877 151.9589228 8.69152828 C133.05137009 8.64909358 114.14386682 8.62553867 95.23626661 8.62031496 C84.62099156 8.61690249 74.00586746 8.60516669 63.39063931 8.57221222 C54.34917913 8.54418943 45.30790086 8.53322218 36.26640064 8.54440768 C31.65523406 8.54958868 27.04444828 8.54674393 22.43333721 8.52194214 C18.20628917 8.49939646 13.97989428 8.50023043 9.75283438 8.51914601 C8.22918835 8.52193861 6.70549753 8.51638883 5.18192333 8.50133307 C-9.01595639 8.36968708 -20.78350076 11.61623879 -29.99289036 22.97127151 Z M-36.50070286 94.13142776 C-36.54195286 134.04080276 -36.58320286 173.95017776 -36.62570286 215.06892776 C-36.64391087 227.67330032 -36.66211887 240.27767288 -36.68087864 253.26399612 C-36.68756725 264.55636161 -36.68756725 264.55636161 -36.69159031 275.84872818 C-36.69345459 280.88085059 -36.70095361 285.91293086 -36.71185398 290.94504166 C-36.72557623 297.36494172 -36.72968436 303.78478054 -36.72684741 310.20469391 C-36.7274406 312.56008819 -36.73140402 314.91548461 -36.73913312 317.27086627 C-36.74909679 320.45529386 -36.74667688 323.63948423 -36.74121189 326.82391739 C-36.74703722 327.74293618 -36.75286255 328.66195498 -36.7588644 329.60882282 C-36.7069737 340.87708745 -34.17085436 349.93902546 -26.42257786 358.40095901 C-18.34576773 366.01179933 -10.07329563 369.25075371 0.97435188 369.26285553 C2.29138027 369.26669667 3.60840865 369.27053782 4.96534699 369.27449536 C6.42545018 369.27371516 7.88555332 369.27283638 9.34565639 369.27186966 C10.89789523 369.27445388 12.4501334 369.2774672 14.00237066 369.28087306 C18.27016444 369.28893959 22.5379414 369.29073244 26.80574191 369.29147053 C31.40780153 369.29332168 36.00985243 369.30086934 40.61190701 369.30760574 C50.67600979 369.32118711 60.74010859 369.32721347 70.80421901 369.3316164 C77.08845177 369.33437914 83.37268299 369.33861656 89.65691471 369.34312057 C107.05658242 369.35531296 124.4562489 369.36561235 141.85592079 369.36899567 C143.52631812 369.36932502 143.52631812 369.36932502 145.23046084 369.36966102 C146.34672114 369.3698793 147.46298144 369.37009757 148.61306781 369.37032247 C150.87503032 369.37076593 153.13699283 369.3712125 155.39895535 369.37166214 C156.5209665 369.37188357 157.64297766 369.372105 158.79898915 369.37233314 C176.97903981 369.37628104 195.15905037 369.39373497 213.33908554 369.41702166 C232.00483855 369.4407375 250.67057145 369.45319762 269.33633977 369.45436358 C279.81623538 369.45528021 290.29607875 369.46102945 300.77595997 369.4791832 C309.69994606 369.49458729 318.62386378 369.49970281 327.54786064 369.49144509 C332.09995975 369.48753971 336.65192119 369.48846279 341.20400333 369.50250244 C345.374644 369.51524786 349.54504361 369.51403823 353.71568397 369.50191173 C355.22108836 369.49995585 356.72650987 369.50302815 358.23189022 369.51175609 C370.74971591 369.57971298 381.34714695 367.94602405 391.49929714 360.13142776 C398.86899606 352.77582005 402.92140737 343.79282524 403.01562023 333.37503624 C403.00396957 332.44337072 402.99231892 331.51170521 402.98031521 330.5518074 C402.98373928 329.53705841 402.98716335 328.52230942 402.99069118 327.47681046 C402.99727205 324.09169611 402.9752848 320.70738681 402.9533987 317.32234573 C402.9521725 314.8480882 402.95270881 312.37382927 402.95485973 309.89957237 C402.95566952 303.95815463 402.93858667 298.01704459 402.91285442 292.07570381 C402.88396004 285.19720401 402.88087029 278.31882468 402.87771511 271.44026566 C402.85674683 253.29561465 402.80090201 235.1510175 402.74929714 217.00642776 C402.62554714 156.18330276 402.62554714 156.18330276 402.49929714 94.13142776 C257.62929714 94.13142776 112.75929714 94.13142776 -36.50070286 94.13142776 Z " fill="#343B5B" transform="translate(72.50070285797119,66.86857223510742)"/>
<path d="M0 0 C0.8928772 -0.0071553 1.78575439 -0.01431061 2.70568848 -0.02168274 C3.68286331 -0.02437164 4.66003815 -0.02706055 5.66682434 -0.02983093 C7.21365402 -0.03968773 7.21365402 -0.03968773 8.79173279 -0.04974365 C12.21079072 -0.06948379 15.62980469 -0.08114149 19.04890442 -0.09111023 C20.80052604 -0.09722352 20.80052604 -0.09722352 22.58753395 -0.10346031 C28.76939848 -0.12432506 34.9512408 -0.13862451 41.13313293 -0.147995 C47.51428557 -0.15905436 53.89508901 -0.19344811 60.27611828 -0.23316669 C65.18583824 -0.2593303 70.09547502 -0.26768668 75.00525856 -0.27127647 C77.35713875 -0.27614381 79.7090152 -0.28776191 82.06082726 -0.30631447 C85.3568564 -0.33069732 88.65198235 -0.32974188 91.94807434 -0.32279968 C93.39865486 -0.34201477 93.39865486 -0.34201477 94.87854004 -0.36161804 C101.93074645 -0.3076263 107.25782861 1.23640103 112.65437317 5.89326477 C117.18847128 11.56743957 119.26611479 15.65205738 118.63093567 23.14717102 C117.41239088 29.26402458 114.53046369 32.6944823 109.86140442 36.70185852 C103.99410201 40.50378828 98.1116815 40.44887217 91.36213684 40.4535675 C90.34183884 40.46189102 89.32154083 40.47021454 88.27032471 40.47879028 C84.9048122 40.50284185 81.5394937 40.5116565 78.17390442 40.51826477 C75.82749373 40.52723463 73.48108361 40.53635655 71.13467407 40.54562378 C66.21796785 40.56210308 61.30132964 40.56981201 56.38459778 40.57270813 C50.09655604 40.57809129 43.80915686 40.61577415 37.5212965 40.66145229 C32.67500495 40.69125105 27.82886764 40.69843231 22.98249245 40.69943428 C20.66492583 40.70363078 18.34735852 40.71604201 16.02988243 40.73695183 C12.78208534 40.7639238 9.53577144 40.75902254 6.28791809 40.74653625 C4.86382629 40.76878769 4.86382629 40.76878769 3.41096497 40.79148865 C-3.15112882 40.7199502 -8.14289759 39.23356341 -13.36906433 35.14717102 C-17.69153991 29.72929278 -19.810877 24.5802801 -19.70890808 17.62373352 C-18.99445231 12.41723976 -16.43484178 8.04569734 -12.58390808 4.50654602 C-8.44169524 1.44605755 -5.08785094 0.02802277 0 0 Z " fill="#465469" transform="translate(93.36906433105469,93.85282897949219)"/>
<path d="M0 0 C0.8928772 -0.0071553 1.78575439 -0.01431061 2.70568848 -0.02168274 C3.68286331 -0.02437164 4.66003815 -0.02706055 5.66682434 -0.02983093 C7.21365402 -0.03968773 7.21365402 -0.03968773 8.79173279 -0.04974365 C12.21079072 -0.06948379 15.62980469 -0.08114149 19.04890442 -0.09111023 C20.80052604 -0.09722352 20.80052604 -0.09722352 22.58753395 -0.10346031 C28.76939848 -0.12432506 34.9512408 -0.13862451 41.13313293 -0.147995 C47.51428557 -0.15905436 53.89508901 -0.19344811 60.27611828 -0.23316669 C65.18583824 -0.2593303 70.09547502 -0.26768668 75.00525856 -0.27127647 C77.35713875 -0.27614381 79.7090152 -0.28776191 82.06082726 -0.30631447 C85.3568564 -0.33069732 88.65198235 -0.32974188 91.94807434 -0.32279968 C93.39865486 -0.34201477 93.39865486 -0.34201477 94.87854004 -0.36161804 C101.93074645 -0.3076263 107.25782861 1.23640103 112.65437317 5.89326477 C117.18847128 11.56743957 119.26611479 15.65205738 118.63093567 23.14717102 C117.41239088 29.26402458 114.53046369 32.6944823 109.86140442 36.70185852 C103.99410201 40.50378828 98.1116815 40.44887217 91.36213684 40.4535675 C90.34183884 40.46189102 89.32154083 40.47021454 88.27032471 40.47879028 C84.9048122 40.50284185 81.5394937 40.5116565 78.17390442 40.51826477 C75.82749373 40.52723463 73.48108361 40.53635655 71.13467407 40.54562378 C66.21796785 40.56210308 61.30132964 40.56981201 56.38459778 40.57270813 C50.09655604 40.57809129 43.80915686 40.61577415 37.5212965 40.66145229 C32.67500495 40.69125105 27.82886764 40.69843231 22.98249245 40.69943428 C20.66492583 40.70363078 18.34735852 40.71604201 16.02988243 40.73695183 C12.78208534 40.7639238 9.53577144 40.75902254 6.28791809 40.74653625 C4.86382629 40.76878769 4.86382629 40.76878769 3.41096497 40.79148865 C-3.15112882 40.7199502 -8.14289759 39.23356341 -13.36906433 35.14717102 C-17.69153991 29.72929278 -19.810877 24.5802801 -19.70890808 17.62373352 C-18.99445231 12.41723976 -16.43484178 8.04569734 -12.58390808 4.50654602 C-8.44169524 1.44605755 -5.08785094 0.02802277 0 0 Z M-10.24406433 14.52217102 C-11.62691059 17.74881228 -11.86665521 19.66403484 -11.36906433 23.14717102 C-9.03057552 27.56431656 -6.91435422 30.09002418 -2.36906433 32.14717102 C0.97093042 32.5887121 4.28503023 32.56725309 7.65022278 32.55122375 C8.65568649 32.55808701 9.66115021 32.56495026 10.69708252 32.57202148 C14.01762552 32.59030864 17.33769691 32.58644912 20.65827942 32.58076477 C22.96846673 32.58532564 25.27865269 32.59063093 27.58883667 32.59664917 C32.42999281 32.60558406 37.27098401 32.60315273 42.11213684 32.59321594 C48.31412583 32.58172607 54.51554549 32.60193667 60.71745968 32.63113308 C65.48815524 32.64948456 70.25871411 32.64920467 75.02943611 32.64349556 C77.31596742 32.64334222 79.60250792 32.64939724 81.88900566 32.66178703 C85.08711779 32.67667476 88.28417477 32.66603538 91.48225403 32.64888 C92.42530396 32.65854797 93.36835388 32.66821594 94.33998108 32.67817688 C99.92599052 32.61547405 103.24099203 31.94743559 107.63093567 28.14717102 C110.45976547 23.90392632 110.28361568 20.12982573 109.63093567 15.14717102 C107.49648702 11.48811619 105.48536339 9.75802503 101.63093567 8.14717102 C99.50513835 7.84506257 99.50513835 7.84506257 97.24205017 7.87974548 C96.37015045 7.87121552 95.49825073 7.86268555 94.59992981 7.85389709 C93.17692566 7.85525665 93.17692566 7.85525665 91.72517395 7.85664368 C90.71985626 7.84992645 89.71453857 7.84320923 88.67875671 7.83628845 C85.35287036 7.81727868 82.02718548 7.81338275 78.70124817 7.81123352 C76.38963233 7.80480776 74.07801731 7.79807957 71.7664032 7.7910614 C66.9193076 7.77908124 62.07228331 7.77538135 57.22517395 7.77656555 C51.01533533 7.7767688 44.80595405 7.7494634 38.59622383 7.71502113 C33.82125245 7.69277985 29.04639163 7.68872716 24.27137375 7.689785 C21.98204344 7.687425 19.69271027 7.67857908 17.40343094 7.66312027 C14.20045728 7.64351669 10.99847622 7.64927676 7.79548645 7.66133118 C6.85086548 7.65009216 5.90624451 7.63885315 4.93299866 7.62727356 C-1.75019354 7.6911626 -5.93442547 9.06329513 -10.24406433 14.52217102 Z " fill="#2C3252" transform="translate(93.36906433105469,93.85282897949219)"/>
<path d="M0 0 C14.85 0 29.7 0 45 0 C45 8.49795357 44.86717031 14.47065838 42.5 22.25 C42.23735352 23.14315918 41.97470703 24.03631836 41.70410156 24.95654297 C38.74816652 34.54026531 34.57021424 43.64467864 29 52 C24.55689588 51.10717766 20.21489276 50.13612524 15.9375 48.625 C9.10714846 46.24657402 2.02315275 44.69762097 -5 43 C-4.80664062 41.73929687 -4.61328125 40.47859375 -4.4140625 39.1796875 C-4.15071643 37.41150674 -3.88771509 35.64327462 -3.625 33.875 C-3.49867188 33.05773437 -3.37234375 32.24046875 -3.2421875 31.3984375 C-1.70479365 20.94415932 -0.96190738 10.58098122 0 0 Z " fill="#49ABE5" transform="translate(310,302)"/>
<path d="M0 0 C4.18774227 1.12409947 8.37514999 2.24944032 12.5625 3.375 C14.33463867 3.85066406 14.33463867 3.85066406 16.14257812 4.3359375 C21.77395845 5.85025826 27.40036425 7.37191207 33 9 C32.85506104 10.14597656 32.71012207 11.29195312 32.56079102 12.47265625 C32.02115597 16.79115936 31.51888592 21.11329359 31.02734375 25.4375 C30.94971802 26.11748047 30.87209229 26.79746094 30.79211426 27.49804688 C30.50677461 29.99864453 30.22217893 32.49932704 29.9375 35 C28.9784375 43.415 28.9784375 43.415 28 52 C13.15 52 -1.7 52 -17 52 C-17 35.28337728 -12.50232254 12.50232254 0 0 Z " fill="#49ABE5" transform="translate(173,242)"/>
<path d="M0 0 C10.0769845 16.67828451 16 32.19264792 16 52 C1.15 52 -13.7 52 -29 52 C-29.268125 48.24625 -29.53625 44.4925 -29.8125 40.625 C-30.62160186 29.95116011 -31.98672271 19.50930743 -34 9 C-32.77925781 8.68546875 -31.55851562 8.3709375 -30.30078125 8.046875 C-21.58893255 5.7866712 -12.93953927 3.46076871 -4.37109375 0.69921875 C-2 0 -2 0 0 0 Z " fill="#49ABE5" transform="translate(339,242)"/>
<path d="M0 0 C14.85 0 29.7 0 45 0 C45.66 7.26 46.32 14.52 47 22 C48.14861899 28.84266599 48.14861899 28.84266599 49.4140625 35.6640625 C50 39 50 39 50 43 C49.04222656 43.23074219 48.08445313 43.46148437 47.09765625 43.69921875 C36.97051934 46.1693774 26.97819028 48.98678412 17 52 C11.67699698 44.86491085 8.24768009 37.25893721 5 29 C4.67902344 28.19433594 4.35804688 27.38867188 4.02734375 26.55859375 C0.88454834 17.98302638 0 9.07825766 0 0 Z " fill="#49ACE5" transform="translate(156,302)"/>
<path d="M0 0 C14.19 0 28.38 0 43 0 C43 12.87 43 25.74 43 39 C33 39.4375 33 39.4375 29.8984375 39.56811523 C25.78279656 39.75645678 21.71080776 39.99028368 17.625 40.53125 C14.68626083 40.91125938 11.95324741 41.10864449 9 41.0625 C8.236875 41.05347656 7.47375 41.04445313 6.6875 41.03515625 C6.130625 41.02355469 5.57375 41.01195312 5 41 C3.13354937 33.26045138 1.6991166 25.59413144 0.8125 17.6875 C0.72887207 16.95998535 0.64524414 16.2324707 0.55908203 15.48291016 C0.00795798 10.24308338 0 5.32979432 0 0 Z " fill="#49AAE4" transform="translate(209,302)"/>
<path d="M0 0 C12.67005318 0.95718096 25.33455073 1.98405487 38 3 C38 15.54 38 28.08 38 41 C23.81 41 9.62 41 -5 41 C-5 34.40764994 -4.89059306 28.13640038 -4.1875 21.625 C-4.10129395 20.80862061 -4.01508789 19.99224121 -3.92626953 19.15112305 C-3.18148263 12.6074537 -1.89084577 6.31542488 0 0 Z " fill="#49ABE4" transform="translate(214,253)"/>
<path d="M0 0 C4.77254834 13.52222029 5 26.61548127 5 41 C-8.86 41 -22.72 41 -37 41 C-37 28.46 -37 15.92 -37 3 C-32.194375 2.505 -27.38875 2.01 -22.4375 1.5 C-20.93501709 1.34337891 -19.43253418 1.18675781 -17.88452148 1.02539062 C-16.68384033 0.90357422 -15.48315918 0.78175781 -14.24609375 0.65625 C-12.41582642 0.46772461 -12.41582642 0.46772461 -10.54858398 0.27539062 C-7.01653381 0.00128312 -3.54108783 -0.04766467 0 0 Z " fill="#49ACE5" transform="translate(297,253)"/>
<path d="M0 0 C13.86 0 27.72 0 42 0 C42 14.63568216 42 14.63568216 41.16015625 20.140625 C40.98419922 21.31238281 40.80824219 22.48414063 40.62695312 23.69140625 C40.44068359 24.86574219 40.25441406 26.04007812 40.0625 27.25 C39.88009766 28.47074219 39.69769531 29.69148438 39.50976562 30.94921875 C38.14453896 39.85546104 38.14453896 39.85546104 37 41 C31.4860147 41.1882528 26.21051512 40.78206321 20.75 40.0625 C13.8367099 39.17024937 6.96183328 38.58015277 0 38 C0 25.46 0 12.92 0 0 Z " fill="#49ACE6" transform="translate(260,302)"/>
<path d="M0 0 C6.10988532 2.65545016 9.84508723 7.51048696 12.78125 13.3828125 C13.51391493 20.51728741 13.12364382 26.50387933 8.78125 32.3828125 C4.21089365 37.29125 -0.41232677 39.4363139 -7.03125 39.8203125 C-13.31296209 39.68009571 -17.28285246 37.16930049 -21.75390625 32.92578125 C-25.61324799 28.66137741 -26.96935523 24.62736547 -27.59375 19.0078125 C-26.84182118 11.73916724 -23.58447485 7.15310681 -18 2.609375 C-12.34475603 -1.28480615 -6.64252757 -1.84774535 0 0 Z " fill="#323353" transform="translate(309.21875,94.6171875)"/>
<path d="M0 0 C6.10988532 2.65545016 9.84508723 7.51048696 12.78125 13.3828125 C13.51464923 20.52443781 13.11702442 26.49472379 8.78125 32.3828125 C4.26828581 37.35214385 -0.51531086 39.12118936 -7.09375 39.7578125 C-12.60331826 39.57906696 -16.94006163 37.46488838 -20.984375 33.76953125 C-25.14049515 29.21999196 -26.90860042 25.17415873 -27.59375 19.0078125 C-26.84182118 11.73916724 -23.58447485 7.15310681 -18 2.609375 C-12.34475603 -1.28480615 -6.64252757 -1.84774535 0 0 Z " fill="#2E3652" transform="translate(424.21875,94.6171875)"/>
<path d="M0 0 C4.7102718 2.62833166 8.40037801 6.61325601 10.8125 11.4375 C11.7985026 25.1656901 11.7985026 25.1656901 7.8125 30.4375 C2.73975296 35.72801649 -1.67781855 38.09785341 -9.0625 38.8125 C-13.75080351 38.65145141 -17.42946665 37.23471657 -21.1875 34.4375 C-26.75431713 28.43596396 -28.62441371 23.45763055 -28.52734375 15.29296875 C-27.89373497 9.96919844 -25.37931036 6.36072966 -21.40234375 2.87109375 C-14.82063302 -2.033748 -7.61994065 -3.42897329 0 0 Z " fill="#313550" transform="translate(368.1875,95.5625)"/>
<path d="M0 0 C0 16.17 0 32.34 0 49 C-17.34574468 49 -17.34574468 49 -24.8125 48.0625 C-25.58658203 47.97548828 -26.36066406 47.88847656 -27.15820312 47.79882812 C-32.71196429 47.14401786 -32.71196429 47.14401786 -35 46 C-33.41680413 31.49350764 -24.77012068 15.84758046 -14 6 C-5.70021413 0 -5.70021413 0 0 0 Z " fill="#49A9E2" transform="translate(252,199)"/>
<path d="M0 0 C0 16.17 0 32.34 0 49 C-9.97620211 47.33729965 -15.65417869 42.13531734 -21.79296875 34.265625 C-27.55797262 25.73545999 -35 13.51551747 -35 3 C-31.53328599 2.49849502 -28.0660842 2.00125663 -24.59765625 1.51171875 C-22.64548118 1.23404781 -20.69384287 0.95171525 -18.74609375 0.64453125 C-12.3767301 -0.30468277 -6.67532291 0 0 0 Z " fill="#49A9E3" transform="translate(252,348)"/>
<path d="M0 0 C9.54045621 1.90809124 16.44358805 8.18497022 22 16 C35 37.22639123 35 37.22639123 35 46 C31.41846681 46.51346841 27.83456412 47.00817476 24.25 47.5 C23.25355469 47.64308594 22.25710938 47.78617188 21.23046875 47.93359375 C19.73193359 48.13662109 19.73193359 48.13662109 18.203125 48.34375 C17.30239258 48.46943359 16.40166016 48.59511719 15.47363281 48.72460938 C10.33107451 49.1323129 5.15869441 49 0 49 C0 32.83 0 16.66 0 0 Z " fill="#49ABE5" transform="translate(260,199)"/>
<path d="M0 0 C12.16689867 0 23.13809404 0.16754005 35 2 C30.97804102 19.05143026 22.28488108 35.48559183 8 46 C4.90767459 47.58052188 3.46227132 48 0 48 C0 32.16 0 16.32 0 0 Z " fill="#49ACE6" transform="translate(260,349)"/>
<path d="M0 0 C0.42410156 1.14855469 0.84820312 2.29710937 1.28515625 3.48046875 C5.99884906 16.04805352 10.9692036 27.84170569 19.6171875 38.29296875 C21 40 21 40 22 42 C1.30888334 37.79163729 -15.60021169 24.87978126 -30 10 C-28.52249281 6.26274782 -28.52249281 6.26274782 -26.21582031 5.1027832 C-25.51038086 4.92062256 -24.80494141 4.73846191 -24.078125 4.55078125 C-23.29953125 4.34259766 -22.5209375 4.13441406 -21.71875 3.91992188 C-20.9040625 3.71947266 -20.089375 3.51902344 -19.25 3.3125 C-18.05117187 2.99442383 -18.05117187 2.99442383 -16.828125 2.66992188 C-11.20932548 1.20515259 -5.83496495 0 0 0 Z " fill="#49A9E3" transform="translate(209,353)"/>
<path d="M0 0 C-0.81791016 0.96873047 -0.81791016 0.96873047 -1.65234375 1.95703125 C-6.63438699 8.18245622 -10.47844635 14.46406332 -13.875 21.6875 C-14.24359131 22.47036377 -14.61218262 23.25322754 -14.99194336 24.05981445 C-17.36929777 29.26509011 -19.2987402 34.53793235 -21 40 C-27.54386419 39.42008052 -33.60884793 38.23727704 -39.9375 36.5 C-40.78634766 36.27441406 -41.63519531 36.04882812 -42.50976562 35.81640625 C-48.69182982 34.15408509 -48.69182982 34.15408509 -51 33 C-50.07115754 26.01766702 -42.3931598 20.92537502 -37.2421875 16.78125 C-34.53883173 14.77876425 -31.79782001 12.86790873 -29 11 C-27.81664062 10.19949219 -27.81664062 10.19949219 -26.609375 9.3828125 C-21.66922398 6.22569612 -16.52939053 3.79848519 -11.125 1.5625 C-10.48208008 1.29099121 -9.83916016 1.01948242 -9.17675781 0.73974609 C-5.79049176 -0.6024693 -3.45351601 -1.46644273 0 0 Z " fill="#49AAE3" transform="translate(230,203)"/>
<path d="M0 0 C7.14055269 0.58335436 13.68254858 2.10005191 20.5625 4.0625 C21.57119141 4.34416016 22.57988281 4.62582031 23.61914062 4.91601562 C26.08124548 5.60447149 28.54137816 6.29922721 31 7 C23.09615673 24.07403556 1.2547773 34.22526555 -15.375 40.5625 C-17.9609375 41.50390625 -17.9609375 41.50390625 -20 42 C-20.66 41.67 -21.32 41.34 -22 41 C-21.52691406 40.54753906 -21.05382812 40.09507812 -20.56640625 39.62890625 C-9.92642992 28.65707881 -4.19339233 14.4766861 0 0 Z " fill="#49AAE3" transform="translate(302,353)"/>
<path d="M0 0 C17.99593347 4.89712349 32.65536228 12.98720052 46 26 C47.07314453 27.01513672 47.07314453 27.01513672 48.16796875 28.05078125 C51.74274539 31.4971228 51.74274539 31.4971228 53 33 C53 33.66 53 34.32 53 35 C49.8798511 35.99508679 46.75318038 36.96798594 43.625 37.9375 C42.31982422 38.35418945 42.31982422 38.35418945 40.98828125 38.77929688 C34.99082204 40.62296026 29.26187584 41.61653385 23 42 C22.731875 41.319375 22.46375 40.63875 22.1875 39.9375 C17.05232214 27.23469161 11.36403484 14.92618222 3 4 C2 2.66666667 1 1.33333333 0 0 Z " fill="#49AAE4" transform="translate(280,201)"/>
<path d="M0 0 C3.70390021 2.02666238 5.65363011 3.48044516 8 7 C8.69920885 11.79689791 8.71482085 15.77459282 6.25 20 C2.94287852 22.93966354 1.09498324 23.83471951 -3.3125 24.5 C-8.17756126 23.84033068 -10.83152337 21.67865507 -14 18 C-15.23534045 14.29397865 -15.45528745 11.90246386 -15 8 C-10.9515859 1.69693066 -7.62876526 -0.63573044 0 0 Z " fill="#F8CC1E" transform="translate(363,102)"/>
<path d="M0 0 C2.70461031 1.95547181 4.45314814 4.04691917 6 7 C6.60395126 10.89213031 6.3877643 13.07367417 4.875 16.6875 C1.81945055 20.45601098 -1.16628481 22.6943808 -6 23.5 C-9.82533091 22.86244485 -11.98324847 21.39968871 -15 19 C-17.8288298 14.7567553 -17.65268001 10.98265471 -17 6 C-13.01052371 -0.83910221 -7.33982093 -2.37054666 0 0 Z " fill="#87BE53" transform="translate(423,103)"/>
<path d="M0 0 C2.70461031 1.95547181 4.45314814 4.04691917 6 7 C6.60395126 10.89213031 6.3877643 13.07367417 4.875 16.6875 C1.81945055 20.45601098 -1.16628481 22.6943808 -6 23.5 C-9.82533091 22.86244485 -11.98324847 21.39968871 -15 19 C-17.8288298 14.7567553 -17.65268001 10.98265471 -17 6 C-13.01052371 -0.83910221 -7.33982093 -2.37054666 0 0 Z " fill="#F0526A" transform="translate(308,103)"/>
</svg>
