<?xml version="1.0" encoding="UTF-8"?>
<svg version="1.1" xmlns="http://www.w3.org/2000/svg" width="512" height="512">
<path d="M0 0 C0.65613281 0.53238281 1.31226563 1.06476562 1.98828125 1.61328125 C2.61347656 2.11472656 3.23867187 2.61617187 3.8828125 3.1328125 C11.87042671 10.28512065 15.5964674 20.20270135 16.98828125 30.61328125 C17.26136437 36.04692735 17.24638727 41.47183186 17.21875 46.91015625 C17.21755518 48.47332725 17.21710568 50.03649898 17.21736145 51.59967041 C17.2158065 54.85734629 17.20759064 58.11491073 17.1940918 61.37255859 C17.17704679 65.53735698 17.17327971 69.70203405 17.17403698 73.86686325 C17.17376456 77.087414 17.16827268 80.30793852 17.16103554 83.52848053 C17.15786664 85.06419934 17.15588565 86.5999211 17.15514183 88.13564301 C17.15296248 90.28156055 17.14418575 92.42735199 17.13354492 94.57324219 C17.12973312 95.79106384 17.12592133 97.0088855 17.12199402 98.26361084 C16.98828125 101.61328125 16.98828125 101.61328125 15.98828125 107.61328125 C20.27828125 107.61328125 24.56828125 107.61328125 28.98828125 107.61328125 C28.9793988 106.24629593 28.97051636 104.87931061 28.96136475 103.47090149 C28.88032005 90.5958778 28.82033543 77.72090579 28.78103256 64.84568501 C28.76014736 58.22619823 28.73181197 51.60691719 28.68652344 44.98754883 C28.64310004 38.60090802 28.61915117 32.21446524 28.60877228 25.82768822 C28.60137469 23.38958811 28.58692918 20.95149898 28.56536102 18.51348305 C28.53637467 15.10160422 28.53232339 11.69054637 28.53417969 8.27856445 C28.51979858 7.26795959 28.50541748 6.25735474 28.49060059 5.21612549 C28.51653193 0.81883881 28.55315613 -1.67710622 30.8916626 -5.49079895 C35.43386269 -9.59819687 40.5164037 -8.57067089 46.36328125 -8.57421875 C47.94496094 -8.59258789 47.94496094 -8.59258789 49.55859375 -8.61132812 C50.574375 -8.61326172 51.59015625 -8.61519531 52.63671875 -8.6171875 C53.56661621 -8.62129639 54.49651367 -8.62540527 55.45458984 -8.62963867 C58.19824558 -8.36658823 59.7478877 -7.99251427 61.98828125 -6.38671875 C62.96704102 -4.34301758 62.96704102 -4.34301758 63.6796875 -1.84375 C66.65117995 8.30570074 66.65117995 8.30570074 73.16503906 16.23779297 C77.85881475 18.59035191 82.77006538 19.90392197 87.87646484 21.04394531 C89.98828125 21.61328125 89.98828125 21.61328125 93.2578125 23.32421875 C96.54144974 24.87443376 97.59701574 24.77821979 100.98828125 23.61328125 C104.53563035 22.11551163 108.02082737 20.5068263 111.515625 18.890625 C117.1224611 16.82826796 117.1224611 16.82826796 120.98828125 17.61328125 C123.96548232 19.62272583 126.43292349 22.10044918 128.98828125 24.61328125 C130.31641846 25.87229248 130.31641846 25.87229248 131.67138672 27.15673828 C134.11554549 29.48717664 136.53380344 31.83816448 138.9362793 34.21118164 C139.9365619 35.19474095 140.9422 36.17288073 141.95288086 37.14575195 C143.4340458 38.5721207 144.89804103 40.01429125 146.359375 41.4609375 C147.2248999 42.30664307 148.0904248 43.15234863 148.98217773 44.02368164 C151.30903228 47.02732606 151.83014 48.8416908 151.98828125 52.61328125 C151.47509766 54.80737305 151.47509766 54.80737305 150.58984375 56.8125 C150.2753125 57.54662109 149.96078125 58.28074219 149.63671875 59.03710938 C149.29898437 59.78412109 148.96125 60.53113281 148.61328125 61.30078125 C147.95916468 62.80448282 147.30550036 64.30838121 146.65234375 65.8125 C146.3579541 66.47080811 146.06356445 67.12911621 145.76025391 67.80737305 C145.08914022 69.37733761 144.52820553 70.9935084 143.98828125 72.61328125 C145.03170671 75.1581855 145.03170671 75.1581855 146.61328125 77.92578125 C149.14086204 82.59557176 150.51682807 86.77587057 151.73828125 91.92578125 C153.29040408 96.57701026 154.73703136 98.81785468 159.05859375 100.984375 C163.59681395 102.89029627 168.24428697 104.31965742 172.98828125 105.61328125 C174.34537043 106.00279882 175.70217321 106.3933166 177.05859375 106.78515625 C178.02539062 107.0584375 178.9921875 107.33171875 179.98828125 107.61328125 C180.35953125 106.46859375 180.35953125 106.46859375 180.73828125 105.30078125 C182.1760721 102.20953091 183.0562339 101.30375054 185.98828125 99.61328125 C189.12867737 99.23233032 189.12867737 99.23233032 192.87719727 99.22509766 C193.56236923 99.2198407 194.2475412 99.21458374 194.95347595 99.20916748 C197.21661265 99.19597679 199.4790437 99.20470857 201.7421875 99.21484375 C203.32437779 99.21282111 204.90656716 99.20990809 206.48875427 99.20614624 C209.80842953 99.2017228 213.12786267 99.20814839 216.44750977 99.22216797 C220.67493287 99.23916223 224.90178041 99.22948147 229.12918186 99.21145058 C232.40059111 99.20052923 235.67186758 99.20409867 238.94328117 99.21183395 C240.4999899 99.2138181 242.05671118 99.21144035 243.61340523 99.20439529 C257.63243519 99.15491951 270.11346921 100.72455943 280.9921875 110.39453125 C289.35991508 119.21407997 292.14138888 129.4127436 292.12872314 141.27153015 C292.13317983 142.57817516 292.13317983 142.57817516 292.13772655 143.91121703 C292.14639714 146.82973712 292.14792041 149.74821611 292.14941406 152.66674805 C292.15404342 154.75960884 292.15906824 156.85246879 292.16445923 158.94532776 C292.17757442 164.63147187 292.18402654 170.31760418 292.18846989 176.00376105 C292.1914022 179.55758622 292.19550732 183.11140816 292.19997406 186.6652317 C292.21364703 197.78818932 292.22331452 208.91113957 292.22717595 220.034105 C292.23165553 232.86660633 292.24919969 245.69900108 292.27817655 258.53147 C292.29980604 268.45521407 292.30988092 278.37892818 292.31121707 288.30269557 C292.31226424 294.22746524 292.31815333 300.15213469 292.33603668 306.0768795 C292.35253906 311.65256033 292.35466226 317.22806585 292.34589767 322.80376244 C292.34512845 324.84590627 292.34945484 326.88805962 292.35935593 328.9301796 C292.42803057 343.98174993 291.69959141 356.79395357 281.20703125 368.62109375 C271.72061004 377.60209088 260.91822164 379.77746185 248.31103516 379.72680664 C246.87594604 379.72702568 246.87594604 379.72702568 245.41186523 379.72724915 C242.26283467 379.72655482 239.11386393 379.71878494 235.96484375 379.7109375 C233.77623527 379.70907161 231.58762638 379.70764852 229.39901733 379.70664978 C223.64840535 379.70283804 217.89781877 379.69301923 212.1472168 379.6819458 C206.27523136 379.67170279 200.4032418 379.66714597 194.53125 379.66210938 C183.01691415 379.65139575 171.50260379 379.63380983 159.98828125 379.61328125 C159.98828125 389.51328125 159.98828125 399.41328125 159.98828125 409.61328125 C163.0975 409.55527344 166.20671875 409.49726563 169.41015625 409.4375 C172.45847022 409.39838312 175.50675504 409.36809347 178.55517578 409.33862305 C180.65589133 409.31364905 182.75652152 409.27965759 184.85693359 409.23608398 C198.81256729 408.95405144 209.95923254 408.88133697 221.42578125 417.80078125 C227.6272102 423.82845809 230.23609026 430.37050785 230.65234375 438.9765625 C230.66215976 440.95448829 230.67154797 442.93269967 230.64013672 444.91040039 C230.61307218 446.94147136 230.64012288 448.96713268 230.671875 450.99804688 C230.66542969 452.29033203 230.65898437 453.58261719 230.65234375 454.9140625 C230.6467041 456.08106689 230.64106445 457.24807129 230.63525391 458.45043945 C229.75498028 462.75381486 228.51024937 463.9787761 224.98828125 466.61328125 C221.41115232 467.35654478 217.88913 467.28784652 214.24633789 467.24819946 C213.15120156 467.25599942 212.05606524 467.26379937 210.92774296 467.27183568 C207.25096758 467.29181027 203.57522092 467.27596855 199.8984375 467.26025391 C197.26544591 467.26702753 194.63245905 467.27592922 191.9994812 467.2868042 C185.58614924 467.30904255 179.17310978 467.30423294 172.75976634 467.28974099 C167.5477564 467.27845102 162.33582847 467.27691678 157.12380981 467.28236008 C156.38213407 467.28312624 155.64045832 467.28389241 154.87630755 467.28468179 C153.36962785 467.28628041 151.86294817 467.28790148 150.35626853 467.28954475 C136.22664609 467.30380399 122.09718582 467.28740684 107.96758997 467.26054291 C95.84256991 467.23820392 83.71778918 467.242084 71.59277344 467.26513672 C57.51387688 467.2918917 43.43512247 467.30243067 29.35620403 467.2870754 C27.85505361 467.28548265 26.35390316 467.28391079 24.85275269 467.28236008 C24.11414963 467.2815887 23.37554658 467.28081732 22.61456162 467.28002257 C17.4085439 467.27570465 12.20261631 467.28299407 6.99661255 467.29475784 C-0.00978003 467.31024179 -7.01571251 467.29922485 -14.02206039 467.27028656 C-16.59682334 467.26366273 -19.17162427 467.26559536 -21.74637222 467.27659988 C-25.25469175 467.29021453 -28.76154962 467.2731863 -32.26977539 467.24819946 C-33.8069744 467.26492988 -33.8069744 467.26492988 -35.37522793 467.28199828 C-40.07446349 467.21684443 -42.29252956 467.15216902 -46.14364624 464.26653099 C-48.4569583 460.98090124 -48.64318632 459.09444643 -48.640625 455.09765625 C-48.64255859 453.84597656 -48.64449219 452.59429687 -48.64648438 451.3046875 C-48.62263672 450.00402344 -48.59878906 448.70335937 -48.57421875 447.36328125 C-48.58517578 446.07808594 -48.59613281 444.79289062 -48.60742188 443.46875 C-48.53142719 433.58944149 -46.75224513 425.69036027 -39.98828125 418.25 C-33.71808515 413.0578811 -25.6925282 409.47626743 -17.51855469 409.49975586 C-16.19763824 409.49986916 -16.19763824 409.49986916 -14.85003662 409.49998474 C-13.90823547 409.50514603 -12.96643433 409.51030731 -11.99609375 409.515625 C-10.53964447 409.51774742 -10.53964447 409.51774742 -9.05377197 409.51991272 C-5.9563894 409.52550462 -2.85907943 409.53805566 0.23828125 409.55078125 C2.33984271 409.5557973 4.44140529 409.56036002 6.54296875 409.56445312 C11.69145665 409.57461997 16.83978778 409.59419705 21.98828125 409.61328125 C21.98828125 399.71328125 21.98828125 389.81328125 21.98828125 379.61328125 C19.07717529 379.6289917 16.16606934 379.64470215 13.16674805 379.66088867 C3.51965734 379.71072628 -6.12743923 379.74378676 -15.77462482 379.76871777 C-21.62040868 379.78433518 -27.46605999 379.80550161 -33.31176758 379.83959961 C-38.95926901 379.87233316 -44.60664339 379.89016375 -50.25423241 379.89791298 C-52.40267116 379.90343142 -54.55110341 379.91420728 -56.69948769 379.93047142 C-72.37079575 380.04432938 -86.85603122 380.01021051 -99.05078125 368.7265625 C-108.01420374 359.01936666 -110.32212159 348.40243432 -110.28637695 335.49121094 C-110.29148788 334.52257111 -110.29659882 333.55393127 -110.30186462 332.55593872 C-110.31566628 329.38228023 -110.31481193 326.20884101 -110.3125 323.03515625 C-110.3163902 320.81797201 -110.32072553 318.6007885 -110.32548523 316.38360596 C-110.3329257 311.75050431 -110.33267052 307.11747891 -110.32739258 302.484375 C-110.32158027 296.54705332 -110.33858202 290.61004181 -110.36173725 284.67277145 C-110.3764593 280.1003029 -110.37734872 275.5279095 -110.37422752 270.95542145 C-110.37474083 268.7657535 -110.37998023 266.57608136 -110.39003944 264.38643646 C-110.40236584 261.33000863 -110.39563637 258.27419137 -110.3840332 255.21777344 C-110.39549881 253.86333633 -110.39549881 253.86333633 -110.40719604 252.48153687 C-110.36742454 247.74544454 -110.20700278 244.39159152 -107.01171875 240.61328125 C-103.82421875 239.30078125 -103.82421875 239.30078125 -101.01171875 238.61328125 C-101.03961617 231.8063106 -102.0580442 227.82773623 -106.453125 222.62109375 C-109.54512969 218.63790977 -111.32090287 213.8047211 -112.828125 209.0234375 C-114.31856874 205.98844151 -115.72409793 205.27823659 -118.69921875 203.73828125 C-129.12698352 197.77527783 -135.48843304 188.82182394 -138.69140625 177.1328125 C-140.48173723 163.05033104 -138.40623198 151.19925688 -130.01171875 139.61328125 C-127.80061398 137.13133835 -125.48979654 134.82742176 -123.01171875 132.61328125 C-124.47548782 129.26321184 -126.37317343 127.00013257 -128.88671875 124.36328125 C-137.52352192 114.80334151 -139.47154752 104.98267696 -139.2578125 92.296875 C-138.49464422 80.87357834 -133.41642757 71.48461801 -125.07421875 63.73828125 C-122.19678826 61.24595048 -119.60368602 59.28909672 -116.13671875 57.73828125 C-111.97789591 54.91028172 -111.49828324 52.16564383 -110.0234375 47.4921875 C-106.58510679 37.7082117 -99.15681576 30.66996631 -90.19921875 25.80078125 C-83.32476664 22.58069891 -75.61067788 21.02874593 -68.01171875 21.61328125 C-67.35171875 21.94328125 -66.69171875 22.27328125 -66.01171875 22.61328125 C-65.86476563 22.05640625 -65.7178125 21.49953125 -65.56640625 20.92578125 C-62.41766572 10.21282497 -55.28290853 2.40404566 -46.0078125 -3.70703125 C-31.42756538 -11.65989332 -13.21533651 -9.73634482 0 0 Z " fill="#D7EBFD" transform="translate(149.01171875,35.38671875)"/>
<path d="M0 0 C0.68487991 -0.0049649 1.36975983 -0.00992981 2.07539368 -0.01504517 C4.34918213 -0.02968731 6.62290058 -0.03647599 8.89672852 -0.04199219 C10.48177593 -0.04774673 12.06682333 -0.05350443 13.65187073 -0.05926514 C16.9834119 -0.06978421 20.31492892 -0.07561936 23.64648438 -0.07910156 C27.88960242 -0.08455531 32.13239451 -0.1085118 36.37541103 -0.13707352 C39.65536889 -0.15582782 42.93525073 -0.16091248 46.21525764 -0.16243744 C47.77756575 -0.16544124 49.33987325 -0.17339179 50.90212822 -0.18662262 C64.95845199 -0.29706162 77.4305703 1.24329773 88.34204102 10.94238281 C96.70976859 19.76193153 99.4912424 29.96059516 99.47857666 41.81938171 C99.48303334 43.12602672 99.48303334 43.12602672 99.48758006 44.4590686 C99.49625066 47.37758868 99.49777393 50.29606767 99.49926758 53.21459961 C99.50389693 55.3074604 99.50892175 57.40032035 99.51431274 59.49317932 C99.52742794 65.17932343 99.53388006 70.86545574 99.5383234 76.55161262 C99.54125571 80.10543778 99.54536084 83.65925972 99.54982758 87.21308327 C99.56350055 98.33604088 99.57316803 109.45899113 99.57702947 120.58195657 C99.58150904 133.41445789 99.5990532 146.24685264 99.62803006 159.07932156 C99.64965956 169.00306563 99.65973444 178.92677975 99.66107059 188.85054713 C99.66211775 194.7753168 99.66800684 200.69998625 99.6858902 206.62473106 C99.70239258 212.2004119 99.70451577 217.77591742 99.69575119 223.351614 C99.69498197 225.39375783 99.69930836 227.43591118 99.70920944 229.47803116 C99.77788409 244.52960149 99.04944493 257.34180513 88.55688477 269.16894531 C79.07046356 278.14994244 68.26807516 280.32531341 55.66088867 280.2746582 C54.22579956 280.27487724 54.22579956 280.27487724 52.76171875 280.27510071 C49.61268819 280.27440639 46.46371744 280.2666365 43.31469727 280.25878906 C41.12608879 280.25692318 38.93747989 280.25550008 36.74887085 280.25450134 C30.99825887 280.25068961 25.24767228 280.24087079 19.49707031 280.22979736 C13.62508487 280.21955435 7.75309532 280.21499753 1.88110352 280.20996094 C-9.63323233 280.19924731 -21.1475427 280.18166139 -32.66186523 280.16113281 C-32.66186523 290.06113281 -32.66186523 299.96113281 -32.66186523 310.16113281 C-29.55264648 310.103125 -26.44342773 310.04511719 -23.23999023 309.98535156 C-20.19167627 309.94623469 -17.14339144 309.91594503 -14.0949707 309.88647461 C-11.99425515 309.86150062 -9.89362496 309.82750915 -7.79321289 309.78393555 C6.1624208 309.50190301 17.30908606 309.42918854 28.77563477 318.34863281 C34.97706372 324.37630966 37.58594378 330.91835941 38.00219727 339.52441406 C38.01201327 341.50233985 38.02140149 343.48055124 37.98999023 345.45825195 C37.96292569 347.48932292 37.9899764 349.51498424 38.02172852 351.54589844 C38.0152832 352.83818359 38.00883789 354.13046875 38.00219727 355.46191406 C37.99655762 356.62891846 37.99091797 357.79592285 37.98510742 358.99829102 C37.1048338 363.30166642 35.86010289 364.52662766 32.33813477 367.16113281 C28.76100583 367.90439634 25.23898352 367.83569808 21.59619141 367.79605103 C20.50105508 367.80385098 19.40591875 367.81165093 18.27759647 367.81968725 C14.60082109 367.83966184 10.92507444 367.82382011 7.24829102 367.80810547 C4.61529942 367.8148791 1.98231257 367.82378078 -0.65066528 367.83465576 C-7.06399724 367.85689411 -13.4770367 367.8520845 -19.89038014 367.83759256 C-25.10239008 367.82630259 -30.31431802 367.82476834 -35.52633667 367.83021164 C-36.26801242 367.8309778 -37.00968817 367.83174397 -37.77383894 367.83253335 C-39.28051864 367.83413197 -40.78719831 367.83575304 -42.29387796 367.83739631 C-56.4235004 367.85165555 -70.55296067 367.83525841 -84.68255651 367.80839448 C-96.80757657 367.78605548 -108.9323573 367.78993557 -121.05737305 367.81298828 C-135.13626961 367.83974327 -149.21502402 367.85028224 -163.29394245 367.83492696 C-164.79509288 367.83333421 -166.29624333 367.83176236 -167.7973938 367.83021164 C-168.53599685 367.82944026 -169.2745999 367.82866888 -170.03558487 367.82787413 C-175.24160259 367.82355621 -180.44753017 367.83084563 -185.65353394 367.84260941 C-192.65992652 367.85809335 -199.665859 367.84707641 -206.67220688 367.81813812 C-209.24696983 367.81151429 -211.82177075 367.81344692 -214.39651871 367.82445145 C-217.90483824 367.8380661 -221.4116961 367.82103787 -224.91992188 367.79605103 C-226.45712088 367.81278144 -226.45712088 367.81278144 -228.02537441 367.82984984 C-232.72460997 367.76469599 -234.94267605 367.70002058 -238.79379272 364.81438255 C-241.10710478 361.5287528 -241.2933328 359.64229799 -241.29077148 355.64550781 C-241.29270508 354.39382813 -241.29463867 353.14214844 -241.29663086 351.85253906 C-241.2727832 350.551875 -241.24893555 349.25121094 -241.22436523 347.91113281 C-241.23532227 346.6259375 -241.2462793 345.34074219 -241.25756836 344.01660156 C-241.18157368 334.13729305 -239.40239161 326.23821183 -232.63842773 318.79785156 C-226.36823164 313.60573266 -218.34267469 310.02411899 -210.16870117 310.04760742 C-208.84778473 310.04772072 -208.84778473 310.04772072 -207.50018311 310.0478363 C-206.55838196 310.05299759 -205.61658081 310.05815887 -204.64624023 310.06347656 C-203.18979095 310.06559898 -203.18979095 310.06559898 -201.70391846 310.06776428 C-198.60653588 310.07335618 -195.50922592 310.08590722 -192.41186523 310.09863281 C-190.31030378 310.10364886 -188.20874119 310.10821158 -186.10717773 310.11230469 C-180.95868984 310.12247153 -175.8103587 310.14204861 -170.66186523 310.16113281 C-170.66186523 300.26113281 -170.66186523 290.36113281 -170.66186523 280.16113281 C-173.57297119 280.17684326 -176.48407715 280.19255371 -179.48339844 280.20874023 C-189.13048914 280.25857785 -198.77758571 280.29163832 -208.42477131 280.31656933 C-214.27055517 280.33218674 -220.11620647 280.35335317 -225.96191406 280.38745117 C-231.60941549 280.42018473 -237.25678987 280.43801531 -242.90437889 280.44576454 C-245.05281764 280.45128298 -247.20124989 280.46205884 -249.34963417 280.47832298 C-265.02094224 280.59218094 -279.50617771 280.55806208 -291.70092773 269.27441406 C-300.66435022 259.56721822 -302.97226807 248.95028588 -302.93652344 236.0390625 C-302.94163437 235.07042267 -302.9467453 234.10178284 -302.95201111 233.10379028 C-302.96581277 229.93013179 -302.96495841 226.75669257 -302.96264648 223.58300781 C-302.96653668 221.36582357 -302.97087202 219.14864007 -302.97563171 216.93145752 C-302.98307219 212.29835587 -302.98281701 207.66533047 -302.97753906 203.03222656 C-302.97172676 197.09490489 -302.9887285 191.15789337 -303.01188374 185.22062302 C-303.02660579 180.64815446 -303.0274952 176.07576106 -303.02437401 171.50327301 C-303.02488731 169.31360507 -303.03012672 167.12393292 -303.04018593 164.93428802 C-303.05251233 161.87786019 -303.04578285 158.82204293 -303.03417969 155.765625 C-303.04182343 154.86266693 -303.04946716 153.95970886 -303.05734253 153.02938843 C-303.01741716 148.27497302 -302.82687136 144.97916493 -299.66186523 141.16113281 C-296.84936523 139.66113281 -296.84936523 139.66113281 -293.66186523 139.16113281 C-289.65246922 140.62610443 -288.04583988 141.58517084 -285.66186523 145.16113281 C-285.41132545 147.1009016 -285.41132545 147.1009016 -285.41030884 149.34037781 C-285.40492599 150.19118423 -285.39954315 151.04199066 -285.39399719 151.9185791 C-285.40018318 153.31421082 -285.40018318 153.31421082 -285.40649414 154.73803711 C-285.40287369 155.72048904 -285.39925323 156.70294098 -285.39552307 157.71516418 C-285.38862338 159.85136167 -285.3861247 161.98757681 -285.38747025 164.12378502 C-285.38843414 167.50784114 -285.37550804 170.89157843 -285.35848999 174.27558899 C-285.31218419 183.89813742 -285.28762136 193.52065459 -285.28100586 203.14331055 C-285.27598444 209.0278099 -285.2516981 214.91197849 -285.21567917 220.79636574 C-285.20589205 223.03655827 -285.20354325 225.27679639 -285.20885086 227.51700401 C-285.21593995 230.65744578 -285.19859901 233.79690668 -285.17602539 236.93725586 C-285.18419785 237.85755585 -285.1923703 238.77785583 -285.20079041 239.7260437 C-285.11748853 246.26251987 -283.82957975 251.82100182 -279.21465492 256.68711376 C-274.53399571 260.75353596 -271.07696048 262.40941657 -264.91334915 262.42119503 C-263.14272169 262.43179342 -263.14272169 262.43179342 -261.33632398 262.44260591 C-260.03829178 262.44019083 -258.74025958 262.43777574 -257.40289307 262.43528748 C-256.01095693 262.4397392 -254.61902333 262.44505303 -253.22709346 262.4511562 C-249.39782433 262.46535465 -245.56863629 262.46699914 -241.7393446 262.46655929 C-237.6110535 262.46820588 -233.48279598 262.48126947 -229.35452271 262.49275208 C-220.32558524 262.51561372 -211.29667126 262.52352396 -202.26770878 262.52857852 C-196.63058433 262.53183425 -190.99346672 262.53835598 -185.35634613 262.54557991 C-169.7504511 262.56514751 -154.14456242 262.58155073 -138.53865433 262.58445644 C-137.5397547 262.58464401 -136.54085508 262.58483158 -135.51168577 262.58502484 C-133.48664586 262.58539109 -131.46160594 262.58575479 -129.43656603 262.58611595 C-128.43132492 262.58629876 -127.42608382 262.58648157 -126.39038086 262.58666992 C-124.8806799 262.58694075 -124.8806799 262.58694075 -123.34047994 262.58721704 C-107.03103324 262.5907589 -90.72171857 262.61778128 -74.41231766 262.65516781 C-57.66988159 262.69324003 -40.92751103 262.71261384 -24.1850307 262.71291596 C-14.78384333 262.71350078 -5.38281343 262.7220087 4.01833344 262.75091362 C12.02347346 262.77541302 20.0283986 262.78272019 28.03356597 262.76766609 C32.11767952 262.76049118 36.20136861 262.76137925 40.28543472 262.78407669 C44.02626822 262.80466732 47.76635095 262.80206639 51.50717631 262.78120185 C53.49735105 262.77605471 55.48754282 262.79548595 57.47761989 262.81586355 C64.71656412 262.74784996 69.80041326 262.0498348 75.33813477 257.16113281 C77.72202392 254.72504488 77.72202392 254.72504488 79.33813477 252.16113281 C79.69599595 251.6287991 80.05385714 251.09646538 80.4225626 250.54800034 C81.8056194 246.94241523 81.62346195 243.34262246 81.61228943 239.53375244 C81.61752611 238.65393196 81.62276279 237.77411148 81.62815815 236.86762977 C81.64318351 233.91366057 81.64386387 230.9598642 81.64453125 228.00585938 C81.65215109 225.89019477 81.66057828 223.77453294 81.66975403 221.65887451 C81.69172469 215.90668624 81.70050153 210.15455113 81.70558047 204.40232563 C81.70922136 200.80881683 81.71546007 197.21532202 81.72258186 193.62181854 C81.7470864 181.08576342 81.76013019 168.54974972 81.76367188 156.01367188 C81.76730672 144.32797132 81.79719603 132.64253349 81.83907646 120.95691323 C81.87376854 110.9253589 81.88922014 100.89389167 81.88991791 90.86227775 C81.89071116 84.87041921 81.89947219 78.87882812 81.92791557 72.88703156 C81.95407697 67.24971302 81.95631183 61.61288402 81.94025993 55.97553253 C81.93844386 53.90835503 81.94515035 51.84114952 81.96107864 49.77403259 C81.98152714 46.94759232 81.97099446 44.12286673 81.9528656 41.29644775 C81.97266555 40.07482732 81.97266555 40.07482732 81.9928655 38.82852769 C81.88763764 31.62556161 79.00872533 26.7632467 73.90063477 21.78613281 C68.78249091 18.54048061 64.11539313 17.9132163 58.12695312 17.92163086 C57.43185135 17.9196167 56.73674957 17.91760254 56.02058411 17.91552734 C54.5212182 17.91199964 53.02183736 17.91272683 51.52247429 17.91730309 C49.14709826 17.92292464 46.77220533 17.91369292 44.39686584 17.90010071 C37.64704097 17.86308162 30.89738466 17.84445095 24.14746094 17.85571289 C20.01003032 17.86156807 15.87328516 17.84329066 11.73599434 17.80982399 C10.16318235 17.80188041 8.59029547 17.80313294 7.01749992 17.8138485 C4.81754937 17.82819867 2.61975379 17.81188788 0.41992188 17.78881836 C-0.8299501 17.78818893 -2.07982208 17.78755951 -3.36756897 17.78691101 C-7.56220623 16.99010576 -9.02494342 15.44924747 -11.66186523 12.16113281 C-12.72436523 9.16113281 -12.72436523 9.16113281 -12.66186523 6.16113281 C-8.97127484 0.43435461 -6.57397131 0.03615691 0 0 Z " fill="#020202" transform="translate(341.661865234375,134.8388671875)"/>
<path d="M0 0 C0.65613281 0.53238281 1.31226563 1.06476562 1.98828125 1.61328125 C2.61347656 2.11472656 3.23867187 2.61617187 3.8828125 3.1328125 C11.87408496 10.28839634 15.58782187 20.20122787 16.98828125 30.61328125 C17.27164832 36.03478271 17.27056266 41.44819701 17.25390625 46.875 C17.25525649 48.43577637 17.25719999 49.99655233 17.25970459 51.55732727 C17.26263638 54.81080168 17.25841959 58.0641655 17.24902344 61.31762695 C17.23760139 65.47341757 17.24421805 69.62895056 17.25616837 73.78473186 C17.26341541 77.00104189 17.26108649 80.21729138 17.25591278 83.43360329 C17.25458563 84.96570682 17.25619099 86.49781599 17.26087189 88.02991295 C17.26598743 90.173328 17.25815843 92.31633213 17.24707031 94.4597168 C17.24547913 95.67531784 17.24388794 96.89091888 17.24224854 98.14335632 C16.32376189 110.69253054 10.13444342 122.17067002 0.98828125 130.61328125 C2.37756789 133.72198206 4.02963332 135.89715549 6.36328125 138.36328125 C13.07294476 145.86806081 16.30501621 154.33490185 16.24707031 164.41943359 C16.25232727 165.55727043 16.25232727 165.55727043 16.25769043 166.71809387 C16.26645273 169.21189681 16.26067696 171.70541319 16.25390625 174.19921875 C16.25525476 175.94267837 16.25719685 177.68613761 16.25970459 179.42959595 C16.26264864 183.07940255 16.25838239 186.72911107 16.24902344 190.37890625 C16.2376463 195.04139737 16.2441819 199.70365776 16.25616837 204.36614037 C16.26342088 207.96594965 16.26108321 211.56570492 16.25591278 215.1655159 C16.25458477 216.8837957 16.25619405 218.60208051 16.26087189 220.32035446 C16.26599118 222.72981357 16.25815102 225.13890768 16.24707031 227.54833984 C16.25111877 228.24885971 16.25516724 228.94937958 16.25933838 229.67112732 C16.16387507 240.96230635 12.10681392 250.65209705 4.42578125 258.86328125 C-5.52215668 268.31977913 -15.85083044 271.06113502 -29.21875 270.82421875 C-41.13789783 270.16136192 -50.07271075 264.28747156 -58.21484375 255.8359375 C-61.73868987 251.47709306 -65.01171875 246.31875725 -65.01171875 240.61328125 C-65.9553125 240.67128906 -66.89890625 240.72929687 -67.87109375 240.7890625 C-82.44322559 241.30113541 -93.19040342 236.69604984 -104.01171875 226.61328125 C-107.74749311 221.90230475 -109.89208214 217.03167951 -111.76171875 211.36328125 C-113.70975263 206.13863808 -116.70110902 204.55582353 -121.48828125 202.0078125 C-130.2759181 197.15148687 -134.26483717 188.56769317 -138.01171875 179.61328125 C-141.29090653 167.64613044 -139.23705163 155.06634729 -133.26171875 144.42578125 C-130.39727394 139.87001853 -127.01445216 136.18968802 -123.01171875 132.61328125 C-124.47548782 129.26321184 -126.37317343 127.00013257 -128.88671875 124.36328125 C-137.52352192 114.80334151 -139.47154752 104.98267696 -139.2578125 92.296875 C-138.49464422 80.87357834 -133.41642757 71.48461801 -125.07421875 63.73828125 C-122.19678826 61.24595048 -119.60368602 59.28909672 -116.13671875 57.73828125 C-111.97789591 54.91028172 -111.49828324 52.16564383 -110.0234375 47.4921875 C-106.58510679 37.7082117 -99.15681576 30.66996631 -90.19921875 25.80078125 C-83.32476664 22.58069891 -75.61067788 21.02874593 -68.01171875 21.61328125 C-67.35171875 21.94328125 -66.69171875 22.27328125 -66.01171875 22.61328125 C-65.86476563 22.05640625 -65.7178125 21.49953125 -65.56640625 20.92578125 C-62.41766572 10.21282497 -55.28290853 2.40404566 -46.0078125 -3.70703125 C-31.42756538 -11.65989332 -13.21533651 -9.73634482 0 0 Z " fill="#010001" transform="translate(149.01171875,35.38671875)"/>
<path d="M0 0 C1.05445313 -0.01224609 2.10890625 -0.02449219 3.1953125 -0.03710938 C4.21109375 -0.03904297 5.226875 -0.04097656 6.2734375 -0.04296875 C7.66828369 -0.04913208 7.66828369 -0.04913208 9.09130859 -0.05541992 C11.83496433 0.20763052 13.38460645 0.58170448 15.625 2.1875 C16.60375977 4.23120117 16.60375977 4.23120117 17.31640625 6.73046875 C20.2878987 16.87991949 20.2878987 16.87991949 26.80175781 24.81201172 C31.4955335 27.16457066 36.40678413 28.47814072 41.51318359 29.61816406 C43.625 30.1875 43.625 30.1875 46.89453125 31.8984375 C50.17816849 33.44865251 51.23373449 33.35243854 54.625 32.1875 C58.1723491 30.68973038 61.65754612 29.08104505 65.15234375 27.46484375 C70.75917985 25.40248671 70.75917985 25.40248671 74.625 26.1875 C77.60220107 28.19694458 80.06964224 30.67466793 82.625 33.1875 C83.5104248 34.02684082 84.39584961 34.86618164 85.30810547 35.73095703 C87.75226424 38.06139539 90.17052219 40.41238323 92.57299805 42.78540039 C93.57328065 43.7689597 94.57891875 44.74709948 95.58959961 45.7199707 C97.07076455 47.14633945 98.53475978 48.58851 99.99609375 50.03515625 C100.86161865 50.88086182 101.72714355 51.72656738 102.61889648 52.59790039 C104.94575103 55.60154481 105.46685875 57.41590955 105.625 61.1875 C105.11181641 63.3815918 105.11181641 63.3815918 104.2265625 65.38671875 C103.91203125 66.12083984 103.5975 66.85496094 103.2734375 67.61132812 C102.93570313 68.35833984 102.59796875 69.10535156 102.25 69.875 C101.59588343 71.37870157 100.94221911 72.88259996 100.2890625 74.38671875 C99.84747803 75.37418091 99.84747803 75.37418091 99.39697266 76.3815918 C98.72585897 77.95155636 98.16492428 79.56772715 97.625 81.1875 C98.66842546 83.73240425 98.66842546 83.73240425 100.25 86.5 C102.77758079 91.16979051 104.15354682 95.35008932 105.375 100.5 C106.52261666 103.98506998 107.37097962 106.38969076 110.53759766 108.40429688 C115.06938631 110.5044656 119.76200047 111.97229426 124.59790039 113.19946289 C127.67548991 114.69952369 128.87117397 116.2362924 130.625 119.1875 C131.19689789 122.28616953 131.18601468 125.32450424 131.15625 128.46875 C131.1600769 129.35985474 131.16390381 130.25095947 131.16784668 131.16906738 C131.17056217 133.04843275 131.1632264 134.92783615 131.14648438 136.80712891 C131.12506886 139.67826873 131.14629761 142.54690644 131.171875 145.41796875 C131.16923166 147.24740134 131.16410655 149.07683237 131.15625 150.90625 C131.16434692 151.76158325 131.17244385 152.6169165 131.18078613 153.49816895 C131.11840933 157.47733077 130.926694 159.68069898 128.85351562 163.16333008 C126.64503871 165.16929875 125.26946424 166.04140799 122.4375 166.85546875 C121.65802002 167.10288818 120.87854004 167.35030762 120.07543945 167.60522461 C119.26679443 167.85925049 118.45814941 168.11327637 117.625 168.375 C111.60619125 170.38843752 111.60619125 170.38843752 106.80078125 174.296875 C105.87956133 176.62896573 105.87956133 176.62896573 105.3515625 179.1640625 C104.20888366 183.91908088 101.93149351 188.17149199 99.81958008 192.56616211 C98.00214589 196.56668269 97.10799247 199.00907576 98.625 203.1875 C100.12276962 206.7348491 101.73145495 210.22004612 103.34765625 213.71484375 C105.41001329 219.32167985 105.41001329 219.32167985 104.625 223.1875 C102.61704907 226.17017639 100.15021615 228.6391319 97.625 231.1875 C96.79532715 232.0419873 95.9656543 232.89647461 95.11083984 233.77685547 C92.36544748 236.58098878 89.5931567 239.3558574 86.8125 242.125 C85.84944087 243.09162902 84.88654919 244.0584249 83.92382812 245.02539062 C83.01439453 245.93353516 82.10496094 246.84167969 81.16796875 247.77734375 C80.34321045 248.60097412 79.51845215 249.42460449 78.66870117 250.27319336 C76.04150709 252.73404975 75.1028619 253.1442197 71.4765625 253.47265625 C66.90527692 253.13421421 63.98251845 251.7498193 60 249.625 C55.33993511 247.02445574 55.33993511 247.02445574 50.15234375 246.26171875 C46.63422116 247.55042826 43.22178074 249.01020284 39.8125 250.5625 C38.45279813 251.17664285 37.09211899 251.78862667 35.73046875 252.3984375 C35.05709473 252.70740967 34.3837207 253.01638184 33.68994141 253.3347168 C31.625 254.1875 31.625 254.1875 29.46240234 254.76879883 C26.30875725 255.64367867 24.24998015 256.23645957 22.4050293 259.04394531 C21.41070617 261.37686861 20.61506369 263.69966175 19.875 266.125 C19.34855348 267.74157601 18.812359 269.35501585 18.265625 270.96484375 C18.04422852 271.67890381 17.82283203 272.39296387 17.59472656 273.12866211 C16.32074281 275.83347202 14.9801152 277.33956585 12.625 279.1875 C9.93945312 279.70507812 9.93945312 279.70507812 6.90625 279.71875 C5.80925781 279.72390625 4.71226562 279.7290625 3.58203125 279.734375 C2.44121094 279.71890625 1.30039063 279.7034375 0.125 279.6875 C-1.01582031 279.70296875 -2.15664062 279.7184375 -3.33203125 279.734375 C-4.42902344 279.72921875 -5.52601563 279.7240625 -6.65625 279.71875 C-8.15768555 279.71198242 -8.15768555 279.71198242 -9.68945312 279.70507812 C-13.1577294 279.0366467 -14.18164333 277.9235351 -16.375 275.1875 C-16.88280869 272.53782177 -16.88280869 272.53782177 -16.89398193 269.4551239 C-16.91485351 267.6936875 -16.91485351 267.6936875 -16.93614674 265.89666653 C-16.92859883 263.96334516 -16.92859883 263.96334516 -16.92089844 261.9909668 C-16.92963107 260.6117312 -16.94010607 259.23250571 -16.95218182 257.85329533 C-16.98018635 254.07653254 -16.98338352 250.30009541 -16.98244166 246.5232439 C-16.98570858 242.49054121 -17.0118215 238.45798132 -17.03517151 234.425354 C-17.07673862 226.61332266 -17.09712856 218.80137764 -17.10971135 210.98925126 C-17.12476623 201.99390407 -17.15875754 192.99866034 -17.19351399 184.00337136 C-17.24888022 169.51737035 -17.28930347 155.03138402 -17.31834781 140.54530799 C-17.35053243 124.52029455 -17.41241698 108.49580433 -17.50719297 92.47104341 C-17.51129481 91.77735003 -17.51539666 91.08365665 -17.5196228 90.36894226 C-17.52369034 89.68275619 -17.52775789 88.99657012 -17.53194869 88.28959054 C-17.58126479 79.83554867 -17.61494126 71.38144243 -17.64500237 62.9273119 C-17.66646156 56.94879789 -17.69354421 50.97044673 -17.73498535 44.99203491 C-17.77255798 39.47096548 -17.79113133 33.95017128 -17.7942028 28.42897797 C-17.79852493 26.44044009 -17.8096742 24.45190311 -17.8282795 22.46344757 C-17.8523481 19.78770243 -17.85189884 17.1130735 -17.8449707 14.43725586 C-17.85778454 13.66516124 -17.87059837 12.89306662 -17.88380051 12.09757519 C-17.84782066 8.40955417 -17.48972881 6.36540986 -15.47062683 3.23439026 C-11.0335865 -1.09946083 -5.88838971 0.00357305 0 0 Z " fill="#020201" transform="translate(195.375,26.8125)"/>
<path d="M0 0 C1.65 0 3.3 0 5 0 C5.9765625 1.79036458 6.953125 3.58072917 7.9296875 5.37109375 C8.91410024 7.16618315 8.91410024 7.16618315 11 8 C13.23461354 8.10562948 15.47239415 8.14609445 17.70947266 8.15771484 C18.74402084 8.16533592 18.74402084 8.16533592 19.79946899 8.17311096 C21.29998118 8.18382266 22.80050941 8.1924397 24.30104446 8.19923019 C26.68103603 8.21102159 29.06084633 8.23047799 31.44076538 8.25234985 C38.20865784 8.31393609 44.97653456 8.36788419 51.74462891 8.40136719 C55.88384186 8.42239613 60.0227288 8.45777157 64.16175461 8.50212479 C65.73485837 8.51622776 67.30801987 8.52499427 68.88118362 8.52817917 C86.95562395 8.56862171 86.95562395 8.56862171 93.2421875 13.90234375 C93.78101563 14.57394531 94.31984375 15.24554688 94.875 15.9375 C95.42929687 16.60652344 95.98359375 17.27554688 96.5546875 17.96484375 C99.99797965 22.81337134 100.29142916 26.73825843 100.27415466 32.62738037 C100.27939134 33.50720085 100.28462802 34.38702134 100.29002339 35.29350305 C100.30504874 38.24747225 100.3057291 41.20126861 100.30639648 44.15527344 C100.31401632 46.27093804 100.32244352 48.38659987 100.33161926 50.5022583 C100.35358992 56.25444658 100.36236676 62.00658168 100.36744571 67.75880718 C100.3710866 71.35231598 100.3773253 74.94581079 100.3844471 78.53931427 C100.40895164 91.0753694 100.42199542 103.61138309 100.42553711 116.14746094 C100.42917195 127.83316149 100.45906126 139.51859932 100.50094169 151.20421958 C100.53563378 161.23577391 100.55108537 171.26724115 100.55178314 181.29885507 C100.5525764 187.2907136 100.56133742 193.28230469 100.58978081 199.27410126 C100.6159422 204.91141979 100.61817706 210.54824879 100.60212517 216.18560028 C100.6003091 218.25277778 100.60701558 220.31998329 100.62294388 222.38710022 C100.64339238 225.2135405 100.63285969 228.03826608 100.61473083 230.86468506 C100.6279308 231.67909868 100.64113077 232.4935123 100.65473074 233.33260512 C100.55744143 239.99216791 98.17030295 244.79457832 93.48653215 249.53023314 C88.80165786 253.59732992 85.43117107 255.24825304 79.25148392 255.26006222 C78.07106561 255.26712781 76.8906473 255.2741934 75.67445874 255.2814731 C74.37642654 255.27905802 73.07839434 255.27664293 71.74102783 255.27415466 C70.3490917 255.27860639 68.9571581 255.28392022 67.56522822 255.29002339 C63.73595909 255.30422184 59.90677105 255.30586633 56.07747936 255.30542648 C51.94918827 255.30707307 47.82093075 255.32013666 43.69265747 255.33161926 C34.66372001 255.35448091 25.63480603 255.36239115 16.60584354 255.36744571 C10.9687191 255.37070143 5.33160148 255.37722317 -0.3055191 255.3844471 C-15.91141414 255.4040147 -31.51730281 255.42041792 -47.12321091 255.42332363 C-48.12211053 255.4235112 -49.12101015 255.42369877 -50.15017946 255.42389202 C-52.17521938 255.42425828 -54.20025929 255.42462198 -56.22529921 255.42498314 C-57.73316087 255.42525735 -57.73316087 255.42525735 -59.27148438 255.42553711 C-60.27795168 255.42571766 -61.28441898 255.42589821 -62.32138529 255.42608423 C-78.63083199 255.42962608 -94.94014666 255.45664847 -111.24954757 255.494035 C-127.99198365 255.53210722 -144.7343542 255.55148103 -161.47683454 255.55178314 C-170.8780219 255.55236797 -180.2790518 255.56087589 -189.68019867 255.58978081 C-197.6853387 255.61428021 -205.69026383 255.62158738 -213.6954312 255.60653328 C-217.77954476 255.59935837 -221.86323385 255.60024644 -225.94729996 255.62294388 C-229.68813345 255.6435345 -233.42821618 255.64093357 -237.16904154 255.62006903 C-239.15921629 255.6149219 -241.14940805 255.63435314 -243.13948512 255.65473074 C-251.3610993 255.57748445 -256.58335457 254.31712382 -262.51214099 248.52193254 C-267.99450689 242.39966237 -268.29013059 236.96707917 -268.25537109 229.13256836 C-268.25899155 228.1433992 -268.262612 227.15423004 -268.26634216 226.13508606 C-268.2732262 223.99127562 -268.27574346 221.8474477 -268.27439499 219.70362663 C-268.27342961 216.31210845 -268.28637239 212.92090705 -268.30337524 209.5294342 C-268.3496533 199.88838121 -268.37426806 190.24736144 -268.38085938 180.60620117 C-268.38586541 174.7064462 -268.4100656 168.80702359 -268.44618607 162.90738106 C-268.45600169 160.65830032 -268.45830646 158.40917398 -268.45301437 156.16007805 C-268.44596805 153.01903433 -268.4631751 149.87898662 -268.48583984 146.73803711 C-268.47766739 145.80649811 -268.46949493 144.87495911 -268.46107483 143.91519165 C-268.48961837 138.83677076 -268.48961837 138.83677076 -270.84463501 134.45387268 C-273.02585932 132.8422964 -273.02585932 132.8422964 -276 132 C-276 128.37 -276 124.74 -276 121 C-275.32195312 121.45890625 -274.64390625 121.9178125 -273.9453125 122.390625 C-266.67255627 127.18540612 -259.52537789 131.01916049 -251 133 C-251 134.98 -251 136.96 -251 139 C-251.969375 139.45375 -252.93875 139.9075 -253.9375 140.375 C-257.07079582 141.65786221 -257.07079582 141.65786221 -258 144 C-258.10757913 146.29164352 -258.14892695 148.58648047 -258.16113281 150.88061523 C-258.16609772 151.58809906 -258.17106262 152.29558289 -258.17617798 153.02450562 C-258.19080532 155.36921148 -258.19760199 157.71384972 -258.203125 160.05859375 C-258.20887533 161.68522647 -258.21463308 163.31185916 -258.22039795 164.93849182 C-258.23090911 168.35068071 -258.23675123 171.76284602 -258.24023438 175.17504883 C-258.24572391 179.55122715 -258.26976104 183.92709507 -258.29820633 188.30317593 C-258.31681138 191.66344622 -258.32203713 195.02364136 -258.32357025 198.38395882 C-258.3266014 199.99753583 -258.33464548 201.61111138 -258.34775543 203.22463799 C-258.36477433 205.47999728 -258.36294649 207.73459313 -258.35644531 209.98999023 C-258.36009094 211.27413315 -258.36373657 212.55827606 -258.36749268 213.8813324 C-258.25980791 216.90820061 -258.25980791 216.90820061 -256.83340073 218.67132151 C-254.26342721 220.53379952 -252.45786699 220.37603813 -249.2980957 220.37752342 C-248.10265137 220.38534666 -246.90720703 220.39316991 -245.67553711 220.40123022 C-243.69565796 220.39119197 -243.69565796 220.39119197 -241.67578125 220.38095093 C-240.26464475 220.38440561 -238.85351094 220.3891689 -237.44238281 220.39513266 C-233.55554148 220.4076985 -229.66892009 220.40144708 -225.78207779 220.39217401 C-221.59387951 220.3854066 -217.40571996 220.39585324 -213.2175293 220.40411377 C-205.00925964 220.41747805 -196.80107211 220.4145614 -188.59279919 220.40587585 C-181.92383841 220.39911028 -175.25490072 220.39817769 -168.5859375 220.4014473 C-167.16408614 220.40213684 -167.16408614 220.40213684 -165.71351051 220.40284032 C-163.7880783 220.40379947 -161.8626461 220.4047721 -159.9372139 220.4057581 C-141.86761613 220.41431989 -123.79806396 220.4044655 -105.72847366 220.388357 C-90.21218876 220.3749531 -74.69597119 220.37728097 -59.1796875 220.39111328 C-41.17628876 220.40715518 -23.17293003 220.41349584 -5.16952515 220.40427649 C-3.2510376 220.40332081 -1.33255006 220.4023777 0.5859375 220.4014473 C1.52995611 220.40098447 2.47397472 220.40052164 3.44659996 220.40004479 C10.11024305 220.39745073 16.77386083 220.40183485 23.4375 220.40888596 C31.55440038 220.41728574 39.67121369 220.41505299 47.78810406 220.39904372 C51.93224062 220.39114042 56.07623183 220.38810427 60.22036743 220.39799118 C64.01017296 220.40689624 67.79969768 220.40207504 71.58947754 220.38605852 C73.61816429 220.38109198 75.64687036 220.39094461 77.67553711 220.40123022 C79.46870361 220.38949535 79.46870361 220.38949535 81.2980957 220.37752342 C82.33424515 220.37703637 83.37039459 220.37654931 84.4379425 220.37604749 C87.38326155 219.94374656 88.23540922 219.34288329 90 217 C91.49649945 214.0070011 91.14437974 210.93834625 91.14044189 207.65592957 C91.14341302 206.8900407 91.14638414 206.12415184 91.1494453 205.33505422 C91.15815419 202.75485271 91.15964239 200.17469748 91.16113281 197.59448242 C91.16575945 195.7501058 91.1707839 193.90573013 91.17617798 192.06135559 C91.18931913 187.04063763 91.19575031 182.01993306 91.20018864 176.99920058 C91.20311668 173.86437216 91.20722098 170.72954742 91.21169281 167.59472084 C91.22537244 157.79218696 91.23503674 147.98966147 91.2388947 138.18711871 C91.24337634 126.86118463 91.26092722 115.53537118 91.2898953 104.20947379 C91.31149377 95.46207912 91.32159801 86.71471843 91.32293582 77.96729738 C91.32398519 72.73960222 91.32992101 67.5120204 91.34775543 62.28435326 C91.36420435 57.36698277 91.3664071 52.44981117 91.35761642 47.53242302 C91.35684433 45.72683938 91.36121134 43.92124519 91.37107468 42.11568832 C91.38374517 39.65189437 91.37794435 37.18881003 91.36749268 34.72502136 C91.37554908 34.00945153 91.38360548 33.2938817 91.39190602 32.55662793 C91.33862342 27.19104653 89.97530539 24.00963942 86.2442627 20.21374512 C83.11559392 18.52169434 80.64061387 18.60416642 77.09179688 18.58007812 C76.06180321 18.56737381 76.06180321 18.56737381 75.01100159 18.55441284 C72.74672811 18.53105988 70.48313466 18.53002007 68.21875 18.53125 C66.64220915 18.52414823 65.06567089 18.51644921 63.48913574 18.50817871 C60.18718272 18.49473852 56.8854688 18.49316337 53.58349609 18.49902344 C49.35288437 18.50492458 45.12341827 18.47431024 40.89302826 18.43390656 C37.6381818 18.40805527 34.38361234 18.40514963 31.12867737 18.40879822 C29.56894548 18.40710507 28.00920106 18.3974437 26.4495697 18.37965393 C24.2683337 18.35750829 22.08943133 18.36713883 19.90820312 18.38476562 C18.66784302 18.38271118 17.42748291 18.38065674 16.14953613 18.37854004 C12.82181192 18.72730629 12.82181192 18.72730629 10.6307373 21.41345215 C9.0291504 23.85943793 9.0291504 23.85943793 8 26 C6.02 26 4.04 26 2 26 C1.97494385 25.31897217 1.9498877 24.63794434 1.92407227 23.9362793 C1.80809048 20.85316245 1.68537384 17.77034954 1.5625 14.6875 C1.52318359 13.61564453 1.48386719 12.54378906 1.44335938 11.43945312 C1.40146484 10.41142578 1.35957031 9.38339844 1.31640625 8.32421875 C1.27974854 7.37635498 1.24309082 6.42849121 1.20532227 5.4519043 C1.08569813 2.863829 1.08569813 2.863829 0 0 Z " fill="#E8EBED" transform="translate(324,143)"/>
<path d="M0 0 C2.475 0.495 2.475 0.495 5 1 C6.25013994 3.65955252 7.16143457 6.02622008 8 8.8125 C9.67480878 14.28970895 10.80521268 17.96019313 16 21 C18.78670791 22.10910685 21.62388343 22.96718867 24.5 23.8125 C30.48162738 25.65379253 35.67472683 27.74427434 41.0625 30.9375 C45.52108019 33.44232033 48.51544451 34.9393676 53.6015625 33.87109375 C57.94546189 32.29342345 62.07100624 30.2874507 66.1796875 28.1796875 C69 27 69 27 72 28 C73.54296875 29.56640625 73.54296875 29.56640625 75.1875 31.5625 C78.39229432 35.39178315 81.85893327 38.73319646 85.59375 42.04296875 C87 44 87 44 86.87890625 46.40625 C85.61942728 50.12311238 83.85337839 53.50548387 82.05859375 56.98828125 C80.16853182 62.36554232 80.25015138 66.32901753 82.5390625 71.4296875 C83.22205455 72.58549459 83.91798979 73.73372671 84.625 74.875 C88.39799149 81.37269683 90.87542663 87.90227251 93.00830078 95.09716797 C94.14832616 98.85416456 94.95572373 101.48162279 98 104 C99.79194525 104.91690872 99.79194525 104.91690872 101.7578125 105.5703125 C102.46550781 105.82683594 103.17320312 106.08335937 103.90234375 106.34765625 C104.63582031 106.60417969 105.36929688 106.86070312 106.125 107.125 C113.89527027 109.89527027 113.89527027 109.89527027 115 111 C115.08726223 112.78071246 115.10699041 114.5648314 115.09765625 116.34765625 C115.09282227 117.96704102 115.09282227 117.96704102 115.08789062 119.61914062 C115.07532227 121.32360352 115.07532227 121.32360352 115.0625 123.0625 C115.05798828 124.20267578 115.05347656 125.34285156 115.04882812 126.51757812 C115.03699747 129.34510351 115.0205141 132.1725264 115 135 C114.20335937 135.32613281 113.40671875 135.65226563 112.5859375 135.98828125 C101.95720191 139.67898064 101.95720191 139.67898064 94 147 C93.37082921 148.89582739 92.81541506 150.81684357 92.3125 152.75 C89.90809475 161.02453524 86.00560745 168.40126184 82 176 C80.33390822 179.33218355 80.38655047 182.41241572 81 186 C82.44473326 189.44355457 84.0559586 192.73748085 85.78515625 196.046875 C87.10797086 199.26246292 87.17972346 199.8795012 86 203 C83.85718757 205.83646125 81.31199591 208.28931219 78.8125 210.8125 C78.15185547 211.51826172 77.49121094 212.22402344 76.81054688 212.95117188 C71.86001318 217.97012361 71.86001318 217.97012361 67.8515625 218.109375 C64.06167141 216.63495162 60.49346757 214.91585743 56.87890625 213.05859375 C51.83160649 211.2026667 48.32115191 211.4057701 43.421875 213.609375 C42.19091416 214.31076727 40.96709942 215.02482091 39.75 215.75 C33.12073946 219.49280077 26.37551852 222.92926911 18.83911133 224.43041992 C15.2349335 225.29505199 12.76584194 225.94836393 10.52734375 229.0222168 C9.32747938 231.54076656 8.35305818 234.05261992 7.4375 236.6875 C6.92606445 238.02651367 6.92606445 238.02651367 6.40429688 239.39257812 C5.57167377 241.58554321 4.77225949 243.78521204 4 246 C2.68 246 1.36 246 0 246 C0 220.59 0 195.18 0 169 C7.79220779 175.67903525 7.79220779 175.67903525 10.8125 178.8125 C13.15387871 181.2469517 13.15387871 181.2469517 16 183 C18.27078117 183.02590245 20.54163211 183.0458549 22.8125 183.0625 C29.44712114 183.47421098 29.44712114 183.47421098 31.75390625 185.66796875 C32.50455542 187.06203149 33.20673241 188.48323394 33.859375 189.92578125 C36.29987365 194.36381133 41.36378248 196.45459416 46 198 C53.72684349 198.99243861 59.57079919 197.36226414 66 193 C70.2219486 189.22298744 72.66776983 184.80077757 73.3359375 179.16796875 C73.43668489 171.48094311 72.69813136 166.01153232 67.38671875 160.25 C61.49867827 154.8189028 55.73527946 153.43904887 47.8125 153.6328125 C43.11750803 154.24576979 39.58213675 155.91146477 36 159 C34.38596765 161.34269744 33.01765159 163.64706928 31.77734375 166.20703125 C30 168 30 168 26.53515625 168.890625 C20.31102877 168.53538771 16.15602812 163.60616614 11.99707031 159.42456055 C10.51225723 157.94967528 8.97747355 156.54693988 7.4296875 155.13867188 C2.60476623 150.50702227 -0.5152956 146.62562721 -0.7130127 139.81776428 C-0.63153881 136.85542189 -0.37902245 133.93817602 0 131 C4.60795952 130.8264817 9.21400542 130.69972515 13.82446289 130.61547852 C15.39120616 130.58035265 16.95772119 130.53263773 18.52368164 130.47192383 C31.6075869 129.977486 31.6075869 129.977486 35.02368164 132.48608398 C36.24967702 134.27488529 37.11799476 136.02503281 38 138 C43.43641402 142.74773201 49.14214585 143.68701219 56.203125 143.35546875 C62.44856461 142.56170478 67.83368618 139.82668056 72 135 C75.53128393 129.38055746 77.26980084 123.59192264 76 117 C73.44557184 109.72803218 70.07369262 104.59486151 63.12109375 101.0390625 C57.50776227 98.644334 52.3231633 97.88539865 46.484375 99.84375 C40.27004081 102.59740707 36.35545586 106.08152066 33 112 C32.505 113.485 32.505 113.485 32 115 C21.44 115 10.88 115 0 115 C-2.44107467 99.77234373 -2.44107467 99.77234373 1.91601562 93.0390625 C4.44166547 89.96225166 7.10191808 87.09947779 9.9375 84.3125 C10.86199951 83.38606689 11.78649902 82.45963379 12.73901367 81.50512695 C20.37272293 74.44356156 20.37272293 74.44356156 26.03515625 74.2421875 C29.64990791 74.50518346 29.90958068 74.89827826 32.5 77.8125 C34 81 34 81 35 84 C36.69769234 85.10168984 36.69769234 85.10168984 39 86 C40.03125 86.53625 41.0625 87.0725 42.125 87.625 C47.64088522 89.90662416 53.08929878 90.01477819 58.72265625 88.05078125 C63.54720775 85.7983765 67.16842945 83.6437757 70 79 C70.5775 78.13375 71.155 77.2675 71.75 76.375 C74.17682182 69.82258107 73.97546819 62.30013053 71.17578125 55.8515625 C68.24357008 51.23406052 64.00687179 48.02573447 59.1875 45.5625 C51.94348045 44.28414361 45.24323151 43.95626786 38.71875 47.7265625 C35.36116084 50.21423083 32.59890317 53.15063965 31.2890625 57.1953125 C30.86367187 57.79085937 30.43828125 58.38640625 30 59 C27.015625 59.1171875 27.015625 59.1171875 23.25 58.875 C18.07238164 58.81876275 14.86814396 59.71249445 10.9296875 63.16796875 C7.83493644 66.20269567 4.94297836 69.40806182 2.16064453 72.73071289 C1.77763184 73.14957764 1.39461914 73.56844238 1 74 C0.67 74 0.34 74 0 74 C0 49.58 0 25.16 0 0 Z " fill="#FCDE75" transform="translate(195,44)"/>
<path d="M0 0 C1.02276535 -0.01533279 1.02276535 -0.01533279 2.06619263 -0.03097534 C4.31621605 -0.05873331 6.56501142 -0.05685661 8.81518555 -0.05224609 C10.38454135 -0.06002382 11.95389295 -0.06869395 13.52323914 -0.07821655 C16.81266928 -0.09313474 20.10167015 -0.09256498 23.39111328 -0.08203125 C27.59475616 -0.07046047 31.79663114 -0.10425484 35.99998188 -0.1507206 C39.24212316 -0.18027655 42.48384305 -0.18192774 45.7260952 -0.17570114 C47.27498047 -0.17672417 48.82389039 -0.18713619 50.37264442 -0.20732498 C63.97783211 -0.36287107 63.97783211 -0.36287107 68.58154297 3.40722656 C72.44249563 7.4441628 72.28624 11.70553637 72.27984619 17.01364136 C72.28430287 18.16375629 72.28430287 18.16375629 72.28884959 19.33710587 C72.29754243 21.91420134 72.29904533 24.49125039 72.30053711 27.06835938 C72.30516482 28.9128835 72.31018942 30.75740666 72.31558228 32.60192871 C72.3287117 37.61845536 72.33515215 42.63496862 72.33959293 47.65150976 C72.34252243 50.78416595 72.34662698 53.91681847 72.35109711 57.04947281 C72.3647727 66.8466639 72.37443938 76.64384662 72.378299 86.4410466 C72.38278179 97.75848059 72.4003397 109.07579392 72.42929959 120.39319122 C72.45089749 129.1363598 72.46100225 137.87949438 72.46234012 146.62268937 C72.46338939 151.84701619 72.46932327 157.07122962 72.48715973 162.29552841 C72.50360798 167.20880832 72.50581173 172.12188918 72.49702072 177.03518677 C72.49624864 178.8391587 72.50061556 180.6431412 72.51047897 182.44708633 C72.52314945 184.90863746 72.5173487 187.36947833 72.50689697 189.83102417 C72.51898158 190.90335574 72.51898158 190.90335574 72.53131032 191.99735057 C72.48811751 196.3428435 71.80326887 199.09050681 69.1394043 202.54931641 C66.49728812 203.87037449 64.52377548 203.67842647 61.56334114 203.68353748 C60.37050455 203.68799533 59.17766796 203.69245317 57.94868481 203.6970461 C56.61317959 203.6969568 55.27767438 203.69676693 53.94216919 203.69648743 C52.53261109 203.69978513 51.12305394 203.7035105 49.713498 203.70762891 C45.82639948 203.71766741 41.9393164 203.72136865 38.05220675 203.72401822 C33.86534386 203.72791572 29.67849325 203.73749434 25.49163818 203.74623108 C15.37446009 203.7660098 5.25728098 203.77606288 -4.85991162 203.78495887 C-9.62022256 203.78933893 -14.38053238 203.79470642 -19.14084244 203.79994774 C-34.95769202 203.81696042 -50.77454091 203.83145611 -66.59139824 203.83869648 C-70.69756954 203.84060648 -74.80374083 203.8425268 -78.90991211 203.84448242 C-80.44082712 203.84520803 -80.44082712 203.84520803 -82.00266971 203.8459483 C-98.54771606 203.85425429 -115.09269025 203.87960062 -131.63770507 203.9120631 C-148.61057543 203.94509458 -165.58340905 203.96314164 -182.55631173 203.96634072 C-192.09152012 203.96850931 -201.62662324 203.9773089 -211.16180038 204.0028019 C-219.27979706 204.02445544 -227.3976629 204.03258574 -235.51568519 204.02283511 C-239.65999224 204.01827499 -243.80402903 204.02027537 -247.94829941 204.03959656 C-251.73948375 204.05711954 -255.5301985 204.05631999 -259.32138707 204.04069927 C-261.3484088 204.03716979 -263.37543484 204.05343013 -265.40238941 204.07030374 C-266.60044149 204.06172285 -267.79849357 204.05314195 -269.03285027 204.04430103 C-270.58731796 204.04576625 -270.58731796 204.04576625 -272.17318904 204.04726106 C-275.58555912 203.41498926 -276.76862713 202.27250067 -278.8605957 199.54931641 C-279.36853027 196.32385254 -279.36853027 196.32385254 -279.37817383 192.45751953 C-279.38518311 191.75134995 -279.39219238 191.04518036 -279.39941406 190.31761169 C-279.41698944 187.98819411 -279.40537417 185.65999589 -279.3918457 183.33056641 C-279.39454078 181.70918546 -279.39842333 180.08780608 -279.40344238 178.46643066 C-279.40933677 175.07023717 -279.4007768 171.67446481 -279.38208008 168.27832031 C-279.35929009 163.92675505 -279.37241356 159.57617658 -279.39636993 155.22464752 C-279.41082981 151.87714209 -279.40622116 148.52987029 -279.39585876 145.18235779 C-279.39319198 143.57799665 -279.39645959 141.97361425 -279.40577698 140.36927795 C-279.41594629 138.12598556 -279.40043906 135.88428705 -279.37817383 133.64111328 C-279.37499146 132.36522339 -279.37180908 131.0893335 -279.36853027 129.77478027 C-278.77145036 125.98322956 -277.93086225 124.78877868 -274.8605957 122.54931641 C-271.4230957 121.98681641 -271.4230957 121.98681641 -267.8605957 122.54931641 C-252.49468827 137.91522384 -262.8605957 165.81864172 -262.8605957 187.54931641 C-157.9205957 187.54931641 -52.9805957 187.54931641 55.1394043 187.54931641 C55.1394043 131.11931641 55.1394043 74.68931641 55.1394043 16.54931641 C35.3394043 16.54931641 15.5394043 16.54931641 -4.8605957 16.54931641 C-8.8605957 14.54931641 -8.8605957 14.54931641 -10.8605957 11.54931641 C-11.52479802 5.46079517 -11.52479802 5.46079517 -9.26594543 2.36099243 C-6.04967094 -0.06146087 -4.006507 0.02998355 0 0 Z " fill="#070708" transform="translate(343.860595703125,160.45068359375)"/>
<path d="M0 0 C0.91949936 0.00565979 1.83899872 0.01131958 2.78636169 0.01715088 C5.69016139 0.03933651 8.59267432 0.08949742 11.49609375 0.140625 C13.47849766 0.1607131 15.46092113 0.1789598 17.44335938 0.1953125 C22.27392461 0.23914259 27.10354191 0.30804372 31.93359375 0.390625 C30.05859375 5.140625 30.05859375 5.140625 28.93359375 7.390625 C28.55449593 10.87832493 28.57261208 12.77852564 30.37109375 15.828125 C34.24295674 18.18901707 37.62284005 17.23803812 41.93359375 16.390625 C42.21203125 15.3696875 42.21203125 15.3696875 42.49609375 14.328125 C45.62112532 7.94219093 50.9038424 3.62433521 57.484375 1.0546875 C65.33887321 -1.07492126 71.74902118 0.00254366 78.77734375 3.97265625 C84.85052867 7.96643546 87.75691847 13.03727444 90.93359375 19.390625 C91.04650361 21.74225237 91.0930188 24.09714522 91.1105957 26.45141602 C91.1171669 27.1785228 91.1237381 27.90562958 91.13050842 28.6547699 C91.15026187 31.06802472 91.16191234 33.48121707 91.171875 35.89453125 C91.17595053 36.71993849 91.18002605 37.54534573 91.18422508 38.3957653 C91.20510072 42.76978175 91.21939244 47.14376675 91.22875977 51.51782227 C91.23978999 56.02129241 91.27414592 60.52426377 91.31393147 65.02755833 C91.34017735 68.50130585 91.34845894 71.9749364 91.35204124 75.44877434 C91.35689154 77.10764854 91.36846083 78.76651807 91.38707924 80.42529488 C91.50372878 91.51277648 91.08852196 100.99584596 82.93359375 109.390625 C75.38471246 115.13433903 68.26350208 116.39595021 58.93359375 115.390625 C53.0291868 113.50974659 47.6457698 109.89017919 44.1328125 104.76171875 C40.59593507 97.8981659 38.387431 92.13272461 39.93359375 84.390625 C41.72569371 79.67733645 44.14447209 75.57430749 46.93359375 71.390625 C47.3821908 66.74574729 47.3821908 66.74574729 45.87109375 62.453125 C42.71842758 60.72424355 40.45585974 60.90479521 36.93359375 61.390625 C29.58798302 66.40713965 25.84430114 76.9835125 23.93359375 85.390625 C16.10897535 86.13979059 10.43960741 84.88807068 3.93359375 80.390625 C-1.44398609 75.74083792 -4.93967988 70.46787503 -6.06640625 63.390625 C-6.42672981 56.1503735 -4.49419107 51.04494301 -0.06640625 45.390625 C0.86705354 44.36609596 1.80432453 43.3450211 2.74609375 42.328125 C5.22200428 39.49807698 5.22200428 39.49807698 5.43359375 35.703125 C5.13543409 32.52745439 5.13543409 32.52745439 3.93359375 30.453125 C0.58129068 28.672214 -2.45889713 28.50375122 -6.06640625 29.390625 C-13.12866647 33.68219038 -16.53984005 42.26245928 -20.06640625 49.390625 C-25.44131017 45.10542763 -29.66695636 41.38787447 -31.06640625 34.390625 C-31.86597521 25.32122849 -31.54439023 17.90725112 -26.06640625 10.390625 C-19.12333112 2.43106989 -10.26423514 -0.24294328 0 0 Z " fill="#FC636E" transform="translate(58.06640625,174.609375)"/>
<path d="M0 0 C6.63335254 3.79203052 11.2356145 9.84472662 13.625 17.0625 C13.82192782 19.51856811 13.91136765 21.98412914 13.93139648 24.44799805 C13.93972 25.17393661 13.94804352 25.89987518 13.95661926 26.64781189 C13.98064789 29.04000269 13.98948406 31.43192018 13.99609375 33.82421875 C14.00506801 35.49705584 14.01419 37.16989214 14.02345276 38.84272766 C14.0399277 42.34886622 14.0476397 45.85490949 14.05053711 49.36108398 C14.05590852 53.83202371 14.09354283 58.30205462 14.13928127 62.77273846 C14.16917807 66.22938723 14.17626344 69.6858209 14.17726326 73.14258766 C14.18144332 74.78947915 14.19378778 76.43637261 14.21478081 78.0831356 C14.34274404 88.99243455 13.32826419 97.01544604 6.4375 105.875 C-0.06551101 110.93289745 -6.26585041 113.99604278 -14.64453125 113.53515625 C-23.15155982 112.06255188 -28.50821453 107.48095327 -33.9765625 101.05078125 C-35.375 99.0625 -35.375 99.0625 -35.375 97.0625 C-41.37569536 95.73959741 -41.37569536 95.73959741 -46.9375 97.625 C-48.78636621 100.76003401 -48.88827592 102.46956859 -48.375 106.0625 C-46.94878316 108.77376384 -46.94878316 108.77376384 -45.375 111.0625 C-45.375 111.7225 -45.375 112.3825 -45.375 113.0625 C-51.13660642 113.21218202 -56.89705146 113.32033804 -62.66015625 113.39208984 C-64.61543523 113.4220373 -66.57058251 113.46281105 -68.52539062 113.51513672 C-90.23932822 114.08129767 -90.23932822 114.08129767 -99.375 107.0625 C-105.76992779 100.53142213 -108.64707103 94.43052162 -108.75 85.1875 C-108.62284597 78.08183336 -107.64698819 73.313469 -102.55078125 68.25 C-100.87067572 66.77777771 -99.16868619 65.39264931 -97.375 64.0625 C-96.84712891 65.114375 -96.84712891 65.114375 -96.30859375 66.1875 C-91.05370674 76.62989107 -91.05370674 76.62989107 -82.375 84.0625 C-77.73218285 84.47130566 -77.73218285 84.47130566 -73.4375 83 C-71.59574504 79.64150566 -71.70963741 77.873213 -72.375 74.0625 C-74.23261962 71.3624225 -76.2494954 68.93806609 -78.4296875 66.4921875 C-82.86684594 60.95019442 -82.92149561 55.48416496 -82.8203125 48.58203125 C-81.97816327 41.92609743 -78.26542035 37.59899596 -73.4375 33.1875 C-66.68459083 28.50180792 -61.38467133 27.62736695 -53.375 28.0625 C-53.21644531 28.59617187 -53.05789062 29.12984375 -52.89453125 29.6796875 C-50.39564331 37.65956168 -47.41999879 47.03035801 -40.375 52.0625 C-36.85273401 52.54832979 -34.59016617 52.72888145 -31.4375 51 C-29.6883032 47.81028818 -29.90414785 45.65274762 -30.375 42.0625 C-31.49418727 39.91531849 -32.77656126 37.96057195 -34.12890625 35.953125 C-37.92518818 30.19324897 -38.15433284 23.75335751 -37.375 17.0625 C-36.40794682 14.11149237 -35.07961574 11.64901764 -33.375 9.0625 C-32.50875 7.7321875 -32.50875 7.7321875 -31.625 6.375 C-23.24888963 -2.2337801 -11.17777457 -4.99651674 0 0 Z " fill="#FC636E" transform="translate(135.375,45.9375)"/>
<path d="M0 0 C1.34596025 -0.00913666 1.34596025 -0.00913666 2.71911162 -0.01845789 C5.71445704 -0.03505636 8.70937588 -0.03031653 11.70475769 -0.0255127 C13.85702963 -0.03285489 16.00929762 -0.04144156 18.16156006 -0.05117798 C24.00050864 -0.07338793 29.83931607 -0.07632486 35.6783011 -0.07443047 C40.55642183 -0.07431073 45.43451269 -0.08287627 50.31262511 -0.09120798 C61.82389011 -0.1104406 73.33508259 -0.11332653 84.84635925 -0.10656738 C96.71216075 -0.0999281 108.57765128 -0.12278702 120.44338971 -0.15988111 C130.63895006 -0.19059471 140.83441045 -0.20193628 151.03001612 -0.1980443 C157.11577673 -0.19597836 163.20129539 -0.20143237 169.2870121 -0.22593689 C175.01221491 -0.24822829 180.73691286 -0.24630577 186.46211815 -0.22600937 C188.55908985 -0.2226035 190.65609569 -0.22767008 192.75302124 -0.24199295 C213.95350921 -0.37676815 213.95350921 -0.37676815 220.87345886 5.39440918 C222.87345886 8.39440918 222.87345886 8.39440918 222.87345886 24.39440918 C142.35345886 24.39440918 61.83345886 24.39440918 -21.12654114 24.39440918 C-21.12654114 8.39440918 -21.12654114 8.39440918 -16.12654114 3.39440918 C-10.63799923 0.36775571 -6.09711154 -0.03919529 0 0 Z " fill="#E9EBED" transform="translate(139.1265411376953,460.6055908203125)"/>
<path d="M0 0 C34.32 0 68.64 0 104 0 C104 10.23 104 20.46 104 31 C69.68 31 35.36 31 0 31 C0 20.77 0 10.54 0 0 Z " fill="#A599A5" transform="translate(188,414)"/>
<path d="M0 0 C24.47761343 8.73830056 43.91535479 26.41222551 55.43994141 49.69824219 C61.71060045 63.38135428 64.51245141 77.32984387 64.875 92.3125 C64.90964355 93.17794434 64.94428711 94.04338867 64.97998047 94.93505859 C65.00864674 99.3800675 64.8844126 101.28289752 62.12890625 104.93359375 C59.4375 106.875 59.4375 106.875 55.9375 107.5 C51.44461845 106.69769972 50.22049812 105.45916424 47.4375 101.875 C46.98179294 98.89514931 46.79113761 96.4090719 46.8125 93.4375 C46.23674717 70.85747926 38.1670746 50.16562081 21.91552734 34.25927734 C8.04538602 21.26890712 -10.6928103 13.18945849 -29.7890625 12.734375 C-30.5109375 12.71503906 -31.2328125 12.69570313 -31.9765625 12.67578125 C-33.45805474 12.64175404 -34.93999431 12.62368445 -36.421875 12.62109375 C-40.55464653 12.48037214 -42.17050476 12.17988518 -45.55078125 9.55078125 C-47.5625 6.875 -47.5625 6.875 -48.125 3.3125 C-47.48378811 -0.60601711 -46.66750781 -1.75058226 -43.5625 -4.125 C-32.20627216 -9.80311392 -11.3787495 -3.45063862 0 0 Z " fill="#000000" transform="translate(437.5625,15.125)"/>
<path d="M0 0 C17.84692339 9.36963478 30.08633659 24.39314853 36.31640625 43.4609375 C38.46074691 50.71002435 39.49625727 57.48745273 39.71875 65.03515625 C39.75331299 65.71755371 39.78787598 66.39995117 39.82348633 67.10302734 C39.85513925 70.940117 39.37728086 72.59841014 37.0078125 75.6640625 C33.37046161 78.41031453 33.37046161 78.41031453 30.21875 78.34765625 C26.28125 77.72265625 26.28125 77.72265625 24.09765625 75.75 C21.66986394 71.70367948 21.54643069 68.29761793 21.28125 63.66015625 C20.060179 48.88491575 15.29519742 35.16861984 4.28125 24.72265625 C-7.33514202 15.08396538 -20.22314901 11.11914578 -35.09375 10.41015625 C-39.07924802 10.10477393 -40.53309198 9.84404803 -43.96875 7.59765625 C-46.18057172 3.96394913 -46.32792138 1.91070951 -45.71875 -2.27734375 C-38.55476164 -15.24075125 -10.04459379 -4.60377215 0 0 Z " fill="#000000" transform="translate(434.71875,45.27734375)"/>
<path d="M0 0 C13.57205165 3.7875493 23.23042653 10.93362275 30.5 23.06640625 C35.20359427 32.05180508 36.92868315 41.7191843 35.9375 51.8125 C34.01909655 55.57552216 32.96197402 56.46374289 29 57.8125 C25.3539602 57.8125 23.82368338 56.97713754 20.9375 54.8125 C18.11794888 51.99294888 18.4860561 49.74840824 18.125 45.8125 C17.09323726 36.86628396 14.74177981 30.10122789 8.0625 23.875 C0.83262054 18.18197108 -5.69209452 17.31724902 -14.63671875 16.53515625 C-18.45170167 15.73039931 -19.7234629 14.86640174 -22.0625 11.8125 C-23.13598469 8.82207837 -23.18097103 7.26484395 -22.375 4.1875 C-17.76463482 -4.15506556 -7.91199194 -1.78657883 0 0 Z " fill="#000000" transform="translate(410.0625,67.1875)"/>
<path d="M0 0 C2.64 0 5.28 0 8 0 C8 56.43 8 112.86 8 171 C5.36 171 2.72 171 0 171 C0 114.57 0 58.14 0 0 Z " fill="#C4E2FF" transform="translate(391,177)"/>
<path d="M0 0 C3.62101332 2.85058495 5.97127932 5.473629 7 10 C7.06521922 14.46751659 6.58784535 17.95996593 4.375 21.875 C0.96236888 24.92840679 -2.34292453 26.87151473 -7.01953125 27.09765625 C-11.88328047 26.71636807 -15.32872261 25.32976322 -19 22 C-21.65111591 17.85938787 -22.33748482 14.14414321 -21.5 9.3125 C-20.30296751 5.07909243 -18.57103126 2.67827344 -15 0 C-9.81386481 -2.7109343 -5.29918753 -2.07274494 0 0 Z " fill="#000000" transform="translate(407,100)"/>
<path d="M0 0 C4.62 0 9.24 0 14 0 C14 8.58 14 17.16 14 26 C4.76 26 -4.48 26 -14 26 C-14 21.28934779 -13.40913563 20.9552544 -10.25 17.75 C-5.14210771 12.26307683 -2.75965821 6.89914552 0 0 Z " fill="#E9ECEF" transform="translate(164,143)"/>
<path d="M0 0 C0.33 0 0.66 0 1 0 C1.63538732 6.09971826 1.05538499 10.14928254 -2.50390625 15.2109375 C-6.23186122 19.66890976 -10.70307802 23.69259493 -16.66405988 24.24839699 C-17.68930477 24.24763755 -18.71454966 24.24687811 -19.77086258 24.24609566 C-20.95621448 24.25007775 -22.14156638 24.25405985 -23.36283803 24.25816262 C-24.66632719 24.25233693 -25.96981635 24.24651125 -27.31280518 24.24050903 C-28.71044071 24.24138099 -30.10807594 24.2431318 -31.50570941 24.24568737 C-35.35044569 24.25016681 -39.19507089 24.24214905 -43.03979301 24.23213124 C-47.18427404 24.22350762 -51.32874862 24.22641613 -55.47323608 24.22793579 C-62.65521991 24.22898533 -69.83716745 24.22270151 -77.01914215 24.21146011 C-87.40311262 24.19521744 -97.78706551 24.18999837 -108.1710473 24.18748413 C-125.01768732 24.18310509 -141.86430799 24.16979032 -158.7109375 24.15087891 C-175.07747297 24.13252552 -191.44400319 24.11836636 -207.81054688 24.10986328 C-208.81910049 24.10933783 -209.8276541 24.10881239 -210.86676994 24.10827102 C-215.92630345 24.10566097 -220.985837 24.10313355 -226.04537058 24.10064721 C-268.03026051 24.0799082 -310.01512915 24.04467698 -352 24 C-352 23.67 -352 23.34 -352 23 C-351.30303153 22.99940291 -350.60606305 22.99880582 -349.88797432 22.99819064 C-308.57768792 22.96229479 -267.2674753 22.90565288 -225.9572565 22.82207905 C-220.99681387 22.81206162 -216.03637092 22.80221749 -211.07592773 22.79248047 C-209.59462869 22.78956841 -209.59462869 22.78956841 -208.08340441 22.78659752 C-192.09453467 22.75557852 -176.10567928 22.73859714 -160.11678512 22.72680578 C-143.71005066 22.71439371 -127.30339152 22.68689103 -110.89670461 22.64538693 C-100.77332441 22.62025317 -90.65006912 22.60688264 -80.52665728 22.60857043 C-73.58414976 22.60860019 -66.64176945 22.59396852 -59.6993115 22.56783572 C-55.69416499 22.55319164 -51.68927935 22.54498516 -47.68411064 22.55419731 C-44.01405061 22.56249575 -40.34451431 22.55229843 -36.67453187 22.52766338 C-34.72471046 22.51930919 -32.77483519 22.53050547 -30.82503277 22.54249835 C-22.2669241 22.45882958 -16.48436443 20.75176908 -9.25 16.3125 C-4.86110618 11.80169247 -2.09348217 5.89981339 0 0 Z " fill="#E2E4E7" transform="translate(423,374)"/>
<path d="M0 0 C2.4375 1.5625 2.4375 1.5625 4 4 C4 7.81153499 3.80074051 10.05097421 1.3125 13 C-1.89970645 14.38906225 -3.6936636 14.05521374 -7 13 C-9.27605184 10.87568495 -9.90218604 9.55893694 -10.4375 6.5 C-9.41545969 0.65976965 -5.50319355 -0.91719892 0 0 Z " fill="#83BFF1" transform="translate(249,104)"/>
<path d="M0 0 C2.375 1.625 2.375 1.625 4 4 C4.60975382 7.65852292 4.44543026 9.30512879 2.4375 12.4375 C0 14 0 14 -3.5625 14 C-7 13 -7 13 -9 11.3125 C-10.37694267 8.12832007 -9.980224 6.29075199 -9 3 C-6.6975944 -0.63537727 -4.0732876 -0.58189823 0 0 Z " fill="#83BFF2" transform="translate(249,213)"/>
<path d="M0 0 C2.5 1.625 2.5 1.625 4 4 C3.93558662 7.15625563 3.49895728 9.16840453 1.875 11.875 C-1.15859527 13.69515716 -3.55964514 13.43004436 -7 13 C-9.66266871 10.76679398 -9.95347082 9.3799883 -10.375 5.9375 C-10 3 -10 3 -8.9375 1.125 C-5.84902396 -0.66830867 -3.48856031 -0.42841969 0 0 Z " fill="#85C1F4" transform="translate(252,159)"/>
<path d="M0 0 C0.33 0 0.66 0 1 0 C1.63538732 6.09971826 1.05538499 10.14928254 -2.50390625 15.2109375 C-5.68622243 19.01642264 -9.36024743 22.13410309 -14 24 C-16.796875 24.1953125 -16.796875 24.1953125 -19.75 24.125 C-20.73484375 24.10695313 -21.7196875 24.08890625 -22.734375 24.0703125 C-23.48203125 24.04710937 -24.2296875 24.02390625 -25 24 C-22.23103912 22.58098603 -19.43094895 21.32805831 -16.5625 20.125 C-7.78937414 16.17637543 -4.38625612 10.56793094 -0.6875 1.9375 C-0.460625 1.298125 -0.23375 0.65875 0 0 Z " fill="#CACACF" transform="translate(423,374)"/>
</svg>
